<svg width="100" height="100" viewBox="0 0 100 100" fill="none" xmlns="http://www.w3.org/2000/svg">
  <path d="M25 0H50V25C50 38.8 38.8 50 25 50C11.2 50 0 38.8 0 25C0 11.2 11.2 0 25 0Z" fill="#F24E1E"/>
  <path d="M75 0H50V25H75C88.8 25 100 13.8 100 0H75Z" fill="#FF7262"/>
  <path d="M50 25H25C11.2 25 0 36.2 0 50C0 63.8 11.2 75 25 75H50V25Z" fill="#A259FF"/>
  <path d="M50 50H75C88.8 50 100 61.2 100 75C100 88.8 88.8 100 75 100C61.2 100 50 88.8 50 75V50Z" fill="#1ABCFE"/>
  <path d="M25 100C38.8 100 50 88.8 50 75H25C11.2 75 0 86.2 0 100H25Z" fill="#0ACF83"/>
</svg>
