<svg width="122" height="35" viewBox="0 0 122 35" fill="none" xmlns="http://www.w3.org/2000/svg">
<path d="M60.7121 16.8258H69.63V17.647C67.5169 17.9653 66.7794 18.2846 66.7794 21.1555V30.3593C63.7475 32.2763 60.217 33.2748 56.6208 33.2323C46.5606 33.2323 40.1167 26.6268 40.1167 17.2862C40.1167 7.71643 47.4728 0.837215 57.7234 0.837215C61.9998 0.837215 65.3097 1.70399 68.1592 3.11508V8.21928H67.2857C65.7689 4.1156 62.5972 2.19751 57.5853 2.19751C48.6674 2.19751 42.4097 8.44012 42.4097 17.0964C42.4097 26.0741 48.5712 31.8606 57.0738 31.8606C59.8313 31.8606 62.4057 31.3121 64.704 30.1706V21.2022C64.704 18.2846 64.0617 17.9653 60.7058 17.6522L60.7121 16.8258ZM72.2494 30.1312V24.7553H73.1229C74.9619 30.0824 78.3638 31.8637 82.1873 31.8637C85.9093 31.8637 89.8603 29.5402 89.8603 25.2561C89.8603 22.4775 88.2044 20.8818 84.4364 19.1493L79.7467 17.0083C75.7925 15.1866 73.3551 12.6807 73.3551 8.89632C73.3551 4.56869 76.9882 0.832031 83.0105 0.832031C86.1823 0.832031 89.49 1.83462 91.5152 3.06428V8.1239H90.6407C89.171 3.56195 86.0379 2.20891 82.7804 2.20891C78.367 2.20891 75.3783 4.85277 75.3783 8.68066C75.3783 11.9155 77.4485 13.6459 80.6192 15.0581L85.3548 17.1991C89.5842 19.1141 91.8824 21.3007 91.8824 24.9005C91.8824 29.7289 87.5621 33.2374 81.9927 33.2374C78.4964 33.2421 75.0874 32.1552 72.2494 30.1312ZM121.347 32.7284V32.8652H118.542L102.866 16.691H100.384V27.8989C100.384 31.6356 101.066 31.8637 103.282 32.0441V32.8652H95.4182V32.0441C97.7175 31.8637 98.3169 31.6356 98.3169 27.8989V6.43909C98.3169 3.02073 97.8054 2.29186 95.4192 2.01814V1.19906H105.347C112.199 1.19906 116.566 4.1156 116.566 8.80404C116.566 13.4075 112.382 16.5511 105.762 16.7792L121.347 32.7284ZM100.383 15.3225H104.934C110.957 15.3225 114.313 12.9565 114.313 8.8507C114.313 4.88802 111.003 2.56454 104.982 2.56454H100.377L100.383 15.3225Z" fill="white"/>
<path d="M17.7333 11.5749V0H16.4205V11.5749C16.8564 11.5208 17.2974 11.5208 17.7333 11.5749ZM8.35512 2.34941L7.25045 3.05236L13.5584 12.788C13.8975 12.5111 14.2687 12.2751 14.6641 12.085L8.35512 2.34941ZM1.74278 9.35408L1.19673 10.5371L11.8177 15.3448C11.9516 14.93 12.1346 14.5329 12.3637 14.1628L1.74278 9.35304V9.35408ZM0 18.7911L0.188296 20.0788L11.7444 18.4303C11.6323 18.01 11.5702 17.5782 11.5593 17.1436L0 18.7911ZM12.505 20.084L3.68223 27.662L4.5348 28.6439L13.3607 21.0659C13.0377 20.7727 12.7509 20.4428 12.506 20.083L12.505 20.084ZM11.6189 33.154L12.8774 33.521L16.1684 22.4168C15.7349 22.3454 15.3117 22.2225 14.9078 22.0508L11.6189 33.154ZM21.29 33.521L22.5505 33.154L19.2679 22.0508C18.8639 22.2219 18.4408 22.3444 18.0074 22.4158L21.29 33.52V33.521ZM20.8025 21.0669L29.6263 28.647L30.4872 27.6631L21.6551 20.084C21.4115 20.4441 21.1252 20.7741 20.8025 21.0669ZM22.424 18.4313L33.9812 20.0788L34.1695 18.7911L22.6081 17.1426C22.5976 17.578 22.537 18.0104 22.424 18.4313ZM32.9717 10.5371L32.4267 9.35408L21.8047 14.1618C22.0348 14.5329 22.2179 14.93 22.3507 15.3448L32.9717 10.5371ZM26.9169 3.05132L25.8123 2.34941L19.5033 12.085C19.8983 12.2752 20.2691 12.5111 20.608 12.788L26.9169 3.05132ZM11.6189 0.874029L12.8795 0.508036L15.0428 7.81131L13.7822 8.17834L11.6189 0.874029ZM19.1267 7.80923L21.289 0.505962L22.5495 0.871955L20.3862 8.17523L19.1267 7.80923ZM3.68119 6.36289L4.54107 5.37999L10.3469 10.367L9.48803 11.3499L3.68119 6.36289ZM0 15.2349L0.186204 13.9471L7.78918 15.0306L7.60193 16.3183L0 15.2349ZM1.2982 23.4899L8.28921 20.2924L8.8405 21.4764L1.84949 24.6739L1.2982 23.4899ZM7.25254 30.9757L11.4055 24.5713L12.5102 25.2743L8.35721 31.6797L7.25254 30.9757ZM16.4267 26.4147H17.7396V34.026H16.4267V26.4147ZM21.6572 25.2711L22.7629 24.5661L26.9159 30.9715L25.8112 31.6765L21.6572 25.2711ZM25.4409 21.5117L25.987 20.3287L32.9738 23.4909L32.4288 24.676L25.4409 21.5117ZM26.3771 15.0327L33.9801 13.9492L34.1674 15.2369L26.5644 16.3204L26.3771 15.0327ZM23.8195 10.3681L29.6273 5.37999L30.4862 6.36392L24.6804 11.351L23.8195 10.3681Z" fill="white"/>
</svg>
