<svg width="126" height="57" viewBox="0 0 126 57" fill="none" xmlns="http://www.w3.org/2000/svg">
<path d="M64.7544 21.4419C64.7544 21.4419 65.216 27.6949 60.1381 28.0306V15.6086C60.1381 15.6086 63.999 15.3148 64.7544 21.4419Z" fill="white"/>
<path d="M41.7569 25.093L43.8972 37.6828H39.9524L41.7569 25.093Z" fill="white"/>
<path fill-rule="evenodd" clip-rule="evenodd" d="M0 56.99H125.898V0H0V56.99ZM115.659 8.09668H108.693V50.0628H121.66V41.6696H115.659V8.09668ZM5.16248 8.09668V49.769L12.8423 49.6012V34.6193L16.1996 49.769H20.0185L23.7115 34.4514V49.769H37.7701L39.0291 45.7823H44.6946L45.4499 49.769H60.3059V35.8363L65.5097 49.769H72.8958L67.5661 33.8219C70.3218 30.8874 72.0329 27.1261 72.4342 23.1205L76.8826 49.769H85.2758L92.3261 9.64943V49.5592H105.965V41.166H99.838V33.1924H105.461V24.4635H99.5023V16.0702H105.797V8.26454H84.8142L81.1211 29.7092L77.596 8.09668H70.126L71.0073 14.9791C70.6029 13.4032 69.7998 11.9577 68.6753 10.7818C67.5509 9.6059 66.1428 8.73902 64.5865 8.26454H52.2065V45.6144L46.3732 8.09668H37.0148L31.0556 45.6144V8.09668H21.865L18.0461 25.5546L14.6468 8.09668H5.16248Z" fill="white"/>
</svg>
