<svg width="176" height="200" viewBox="0 0 176 200" fill="none" xmlns="http://www.w3.org/2000/svg">
<path fill-rule="evenodd" clip-rule="evenodd" d="M63.3953 198.333C65.3201 199.433 67.5203 199.983 70.0867 199.983C83.783 199.983 106.573 184.157 137.825 152.687H138.008C138.081 152.687 138.154 152.673 138.221 152.643C138.283 152.616 138.34 152.577 138.387 152.526C138.419 152.493 138.445 152.455 138.467 152.412L140.951 149.928C141.096 149.899 141.233 149.811 141.306 149.662C141.338 149.621 141.408 149.537 141.513 149.414L141.852 149.026L143.889 146.989L143.934 146.96L143.963 146.94C144.039 146.884 144.104 146.817 144.148 146.729L146.957 143.921C147.119 143.845 147.192 143.758 147.265 143.612L152.398 138.48C152.543 138.407 152.688 138.277 152.743 138.135L155.117 135.761L155.514 135.547C155.697 135.455 155.789 135.272 155.789 135.088L158.262 132.613C158.366 132.562 158.439 132.481 158.484 132.388L175.313 115.565C175.345 115.533 175.378 115.488 175.406 115.436C175.458 115.343 175.496 115.225 175.496 115.107L175.585 115.015V103.957C175.648 103.786 175.679 103.653 175.679 103.557V101.266L175.585 100.52V92.1874C175.585 92.1574 175.587 92.1285 175.587 92.1006V89.7175L175.585 88.3271C175.585 88.3011 175.586 88.2757 175.586 88.2509L175.585 35.272H172.73C172.672 33.7316 172.557 33.6181 172.379 33.4387C172.173 33.2036 171.609 33.0532 170.189 32.9998C170.107 31.6995 169.956 31.1985 169.721 30.964C169.443 30.6861 168.816 30.5079 167.769 30.4259C167.658 29.2718 167.465 28.615 167.155 28.3058C166.756 27.906 166.008 27.6564 164.917 27.5383C164.774 26.5862 164.552 25.9788 164.22 25.6478C163.769 25.1968 163.048 24.901 162.064 24.7422C161.901 24.0572 161.678 23.5614 161.382 23.2646C160.932 22.8155 160.313 22.4936 159.528 22.2871C159.341 21.5963 159.08 21.0556 158.722 20.6982C158.219 20.1943 157.546 19.8354 156.723 19.6041C156.516 18.992 156.242 18.4943 155.879 18.1317C155.345 17.5985 154.683 17.2053 153.904 16.9368C153.683 16.3889 153.398 15.9269 153.037 15.5652C152.499 15.0272 151.868 14.6155 151.149 14.3177C150.919 13.8505 150.635 13.4384 150.287 13.0906C149.733 12.5368 149.106 12.1022 148.412 11.7762C148.157 11.2743 147.84 10.8236 147.448 10.4323C146.919 9.90292 146.335 9.47439 145.7 9.13848C145.448 8.71057 145.147 8.31533 144.79 7.95751C144.173 7.34808 143.501 6.86071 142.779 6.48504C142.539 6.13476 142.263 5.80026 141.946 5.48287C141.335 4.86453 140.681 4.35971 139.987 3.9595C139.733 3.59915 139.441 3.251 139.106 2.91635C130.856 -5.33298 116.558 5.39114 101.434 16.7569L101.089 17.0152C94.7341 21.7818 88.3103 26.6004 82.1902 30.1331C81.2917 29.8331 80.2576 29.579 79.2078 29.3255C78.2117 28.8113 76.9666 28.4117 75.6667 27.9942L75.4958 27.9392L75.4568 27.9269C74.4421 27.2764 73.2146 26.7703 72.0125 26.2894C71.7 26.1605 71.3787 26.0279 71.0593 25.8908C70.364 25.2519 69.3708 24.7493 68.2048 24.3548C68.0554 24.2389 67.9187 24.1201 67.7966 23.998C66.9285 23.1294 65.6628 22.433 64.1277 21.8903C63.073 20.8675 61.7253 20.0875 60.2341 19.4952C59.1873 18.5776 57.8894 17.7946 56.3816 17.1565C55.1912 16.1645 53.8171 15.3517 52.3162 14.7024C51.0183 13.6509 49.6248 12.8245 48.197 12.1784C46.9324 11.2149 45.5818 10.4159 44.1726 9.76748C42.8591 8.76757 41.4949 7.9396 40.0955 7.26773C33.9236 2.65438 27.7283 1.97464 23.3406 2.36639C17.1082 2.91635 10.9666 5.84942 6.47534 10.3407C1.80054 15.0153 -0.398683 21.5231 0.0593245 28.8558C0.425535 34.8137 2.71753 40.7715 5.83374 43.8879C12.5291 50.5829 33.3699 71.6948 46.8367 85.4123L49.488 88.3511L50.5085 89.674L51.0828 90.4951C41.5457 85.4113 31.2468 86.3887 23.8904 93.6588C21.0496 96.5002 19.5828 100.258 19.5828 104.291C19.5828 108.507 21.324 112.448 24.3484 115.473C24.6609 115.786 24.9753 116.078 25.2937 116.35C25.7878 117.07 26.3582 117.759 27.0056 118.406C27.4714 118.872 27.946 119.288 28.4294 119.659C28.823 120.223 29.2654 120.755 29.7585 121.248C30.2634 121.754 30.782 122.195 31.3093 122.579C31.6365 123.051 32.0037 123.495 32.4158 123.906C32.8708 124.362 33.3396 124.761 33.8191 125.11C34.2029 125.744 34.6492 126.325 35.1638 126.839C35.5242 127.19 35.8953 127.504 36.2771 127.785C36.6531 128.508 37.1052 129.148 37.6384 129.68C38.1082 130.137 38.6033 130.523 39.1208 130.848C39.4373 131.487 39.8269 132.051 40.2976 132.522C40.8464 133.089 41.4578 133.536 42.116 133.887C42.363 134.484 42.6707 134.986 43.0486 135.363C43.5105 135.826 44.0271 136.192 44.5886 136.481C44.8103 137.261 45.116 137.888 45.5242 138.296C46.113 138.885 46.8376 139.295 47.6619 139.576C47.8396 140.21 48.072 140.665 48.363 140.955C48.8689 141.489 49.5378 141.85 50.3367 142.09C50.489 142.999 50.7166 143.582 51.0222 143.887C51.5027 144.368 52.2283 144.656 53.1501 144.824C53.2576 145.841 53.4265 146.568 53.6804 146.821C54.0837 147.224 54.7693 147.45 55.7537 147.568C55.8279 149.244 55.9812 149.397 56.155 149.57C56.4939 149.909 57.1111 150.074 58.6287 150.13V152.228H58.7351C58.2507 154.035 56.2048 162.578 55.6042 171.844C54.5964 185.867 57.2546 194.85 63.3953 198.333ZM58.6287 147.684V148.763C57.9861 148.752 57.49 148.722 57.2546 148.654C57.2136 148.468 57.1765 148.156 57.1482 147.666C57.6003 147.682 58.0935 147.686 58.6287 147.684ZM58.6287 145.001V146.516C58.0955 146.525 57.5789 146.527 57.1033 146.518C57.0935 146.095 57.0857 145.603 57.0828 145.03C57.5789 145.024 58.0955 145.013 58.6287 145.001ZM58.6287 133.442V133.715L58.6052 133.712C58.5505 133.39 58.4939 133.074 58.4353 132.764L58.4695 132.774C58.5232 132.993 58.5769 133.216 58.6287 133.442ZM58.6287 116.983V128.205C58.3279 127.743 58.0105 127.318 57.6765 126.929C57.9353 123.85 58.282 120.161 58.6287 116.983ZM148.9 35.272H146.774L148.798 35.1637C148.832 35.1993 148.866 35.2354 148.9 35.272ZM153.09 35.272H151.96C151.942 35.1819 151.926 35.0911 151.91 34.9997L153.08 34.9391C153.083 35.0505 153.086 35.1615 153.09 35.272ZM155.753 35.272H154.25C154.245 35.1421 154.24 35.0113 154.236 34.8799L155.764 34.8029L155.755 35.1792L155.753 35.272ZM158.48 35.272H156.988C156.991 35.0959 156.994 34.9192 156.998 34.7421L158.496 34.6699L158.48 35.272ZM161.032 35.272H159.731L159.756 34.6111L161.058 34.5525L161.032 35.272ZM163.912 35.272H162.318L162.347 34.497L163.926 34.4337C163.922 34.7128 163.917 34.9926 163.912 35.272ZM166.495 35.272H165.107C165.112 34.9699 165.117 34.6759 165.121 34.3899C165.599 34.3733 166.058 34.3585 166.496 34.3457V35.0912L166.495 35.272ZM169.019 35.272H167.891C167.894 34.9374 167.895 34.617 167.895 34.3103C168.288 34.3022 168.655 34.2964 168.996 34.2931C169.005 34.6013 169.013 34.9287 169.019 35.272ZM171.526 35.272H170.258L170.254 34.8659L170.242 34.2941C170.784 34.3022 171.196 34.322 171.462 34.3553C171.489 34.5742 171.51 34.8849 171.526 35.272ZM59.949 35.272H58.6287V93.689L57.7859 83.2526C56.9099 72.402 56.0408 61.637 55.7888 58.7366C55.3298 53.0537 55.1472 37.105 55.697 34.9052C56.2009 34.7983 57.2898 34.7093 58.7605 34.6376C59.1472 34.8697 59.5437 35.0812 59.949 35.272ZM58.5437 142.374L58.5828 143.021L58.6248 143.815C58.1013 143.829 57.5837 143.841 57.0818 143.847L57.0837 143.202L57.0916 142.433L57.3455 142.421C57.74 142.405 58.1404 142.389 58.5437 142.374ZM58.365 139.949C58.4021 140.384 58.4373 140.827 58.4695 141.277L58.116 141.289L57.2537 141.321L57.2244 141.322L57.1042 141.325L57.1248 139.976C57.5398 139.963 57.9539 139.953 58.365 139.949ZM58.0974 137.285C58.1501 137.734 58.199 138.192 58.2458 138.659C57.8787 138.663 57.5125 138.672 57.1492 138.683L57.1794 137.275C57.4871 137.274 57.7927 137.277 58.0974 137.285ZM57.8425 135.335C57.8787 135.587 57.9148 135.843 57.949 136.103L57.6521 136.099L57.3474 136.097L57.2078 136.098L57.241 134.792L57.4666 134.808L57.7673 134.835L57.8425 135.335ZM59.6853 152.687H60.0232C59.5525 155.082 58.2126 162.359 57.9871 170.194C57.6199 183.209 60.5535 191.459 66.5115 194.758C68.4363 195.767 70.7273 196.317 73.2019 196.317C80.8367 196.317 91.1619 191.478 104.11 181.818C85.1541 196.606 71.7039 201.841 63.9451 197.416C51.1199 190.064 58.5544 157.346 59.6853 152.687ZM143.081 28.575C143.273 28.7927 143.475 29.0086 143.689 29.2225C143.867 29.4022 144.052 29.5922 144.247 29.7918L142.371 30.0997C140.888 30.3445 139.343 30.6026 137.732 30.8723L136.853 31.0154C131.152 31.9439 124.888 32.9639 118.818 33.8109C123.709 32.8334 128.732 31.7242 133.623 30.644L133.643 30.6394L135.443 30.2419L135.452 30.2399L135.461 30.2381L135.554 30.2176C138.09 29.6578 140.626 29.0979 143.081 28.575ZM150.648 35.1596L150.566 35.0701L150.632 35.0666L150.648 35.1596ZM143.19 27.1827C142.852 26.7347 142.558 26.2791 142.305 25.8169L142.858 25.6761C142.952 26.1825 143.071 26.6833 143.22 27.1762L143.19 27.1827ZM141.346 26.0646C141.582 26.516 141.851 26.9622 142.158 27.4024L140.409 27.7798C139.313 28.0179 138.184 28.2662 137.02 28.5238L133.881 29.2225L133.259 29.3591C127.461 30.6334 121.283 31.9911 115.344 33.1107C120.356 31.8587 125.499 30.4295 130.492 29.0391C134.224 27.9901 137.904 26.9606 141.346 26.0646ZM141.78 24.715L142.682 24.4855C142.616 23.8878 142.579 23.2846 142.563 22.6792C142.129 22.8017 141.689 22.9282 141.244 23.0584C141.38 23.617 141.556 24.1698 141.78 24.715ZM140.314 23.3336C140.377 23.5794 140.445 23.8245 140.521 24.0687C140.615 24.3666 140.72 24.663 140.839 24.9578C137.637 25.7897 134.094 26.7664 130.218 27.8475C123.416 29.7643 116.052 31.8272 109.133 33.3607C114.962 31.6969 121.032 29.6649 126.885 27.7055L127.009 27.6643C131.632 26.1032 136.177 24.5716 140.314 23.3336ZM140.997 21.7591C141.526 21.6056 142.049 21.4576 142.562 21.3156C142.579 20.5682 142.622 19.8211 142.677 19.0806C142.079 19.2495 141.467 19.431 140.842 19.6238C140.851 20.3405 140.898 21.0533 140.997 21.7591ZM139.858 19.9331C139.883 20.6354 139.943 21.3376 140.052 22.0362C135.933 23.2573 131.39 24.779 126.641 26.3811C117.921 29.3263 108.721 32.4152 100.628 34.2024C107.851 32.1116 115.661 29.0554 123.128 26.1335L123.807 25.8676C129.484 23.6477 135.018 21.4835 139.858 19.9331ZM140.861 18.3515C141.515 18.1544 142.155 17.9702 142.78 17.8003L142.854 16.9627L142.863 16.8486L142.904 16.3834L142.975 15.5644C142.596 15.6521 142.209 15.7483 141.815 15.8524C141.556 15.9208 141.295 15.9925 141.03 16.0677C140.955 16.8286 140.892 17.5911 140.861 18.3515ZM139.886 17.7367C139.87 18.0447 139.857 18.3534 139.851 18.6625C134.844 20.237 129.076 22.5029 122.974 24.9145L122.728 25.0104C114.026 28.4141 104.865 31.9969 96.7917 34.0077C104.046 31.6772 111.859 28.199 119.262 24.9035L119.856 24.6394L119.9 24.62C127.159 21.3372 134.207 18.1504 139.982 16.3776C139.943 16.8283 139.91 17.2817 139.886 17.7367ZM141.175 14.7207C141.827 14.5442 142.461 14.3883 143.077 14.2548C143.124 13.559 143.155 12.8769 143.155 12.2152C142.785 12.247 142.405 12.2927 142.015 12.3515C141.815 12.3817 141.613 12.4153 141.408 12.4523C141.362 12.9675 141.307 13.4875 141.252 14.0106L141.222 14.2956L141.175 14.7207ZM140.244 13.8483L140.229 13.9908L140.206 14.1904L140.115 15.0206C134.408 16.7044 127.472 19.8009 120.018 23.1299L119.306 23.4478L119.289 23.4556L119.274 23.4617C110.485 27.443 101.056 31.7133 92.7468 33.9701C100.144 31.332 108.189 27.2187 116.099 23.1731L116.87 22.7826L116.879 22.7781C125.635 18.3429 134.038 14.0874 140.373 12.6629C140.334 13.0532 140.289 13.4485 140.244 13.8483ZM141.498 11.2824C142.055 11.1856 142.596 11.1127 143.121 11.0654C143.084 10.4965 143.015 9.94732 142.905 9.42263C142.657 9.38552 142.403 9.35824 142.143 9.34042C142.027 9.33245 141.91 9.32638 141.792 9.32217L141.54 9.31604C141.549 9.6462 141.548 9.9801 141.54 10.3172C141.532 10.6362 141.517 10.9581 141.498 11.2824ZM140.548 9.34262C140.564 10.0336 140.535 10.7476 140.479 11.4816C133.945 12.8959 125.401 17.2442 116.075 21.9905L115.6 22.2319L115.589 22.2378C107.526 26.3435 98.8591 30.7565 91.0095 33.35C90.8474 33.3097 90.6677 33.2707 90.4705 33.2327C97.5779 30.331 105.219 25.9861 112.709 21.7063C123.377 15.6008 133.603 9.78988 140.548 9.34262ZM141.467 8.16995C141.84 8.17321 142.204 8.19253 142.558 8.22875C142.516 8.11923 142.471 8.01116 142.425 7.9046C142.355 7.74697 142.279 7.59268 142.197 7.44186C141.907 7.2984 141.607 7.17483 141.298 7.0704C141.331 7.23138 141.36 7.3937 141.385 7.55731C141.418 7.75964 141.445 7.96389 141.467 8.16995ZM140.2 6.78616C140.327 7.2427 140.415 7.71359 140.47 8.1976C133.18 8.65194 122.868 14.5359 112.124 20.6659L112.068 20.6981C104.394 25.1175 96.155 29.82 88.5769 32.7332C88.5564 32.7092 88.5359 32.6855 88.5134 32.6622L88.4597 32.6078C88.3962 32.5473 88.3259 32.4892 88.2498 32.4331C94.946 29.3029 102.068 24.857 109.116 20.4578L109.318 20.3315L109.333 20.3221L109.342 20.3165C121.424 12.7189 132.996 5.44171 140.2 6.78616ZM139.217 4.65948C139.316 4.80432 139.409 4.9512 139.496 5.10009C139.585 5.25271 139.667 5.40747 139.742 5.56427C132.136 4.62136 120.905 11.6765 109.059 19.1168L109.042 19.1284L108.239 19.6311C101.037 24.1503 93.7332 28.732 86.9382 31.8219C86.6404 31.726 86.3103 31.6364 85.949 31.5504C92.3279 28.1501 99.0261 23.4887 105.649 18.8651L106.269 18.4416C119.497 9.40237 131.916 0.914973 139.217 4.65948ZM137.709 3.04388C129.972 -3.36316 116.413 6.80648 102.076 17.5818L101.994 17.6436C95.7878 22.318 89.4949 27.0578 83.4421 30.633C83.6238 30.7218 83.7927 30.8148 83.948 30.9128C84.0681 30.9889 84.1804 31.068 84.2839 31.1504C90.946 27.7652 98.032 22.87 105.009 18.0402L105.17 17.9296C117.687 9.3038 129.682 1.03842 137.709 3.04388ZM72.8777 34.4147L72.9353 34.4149L72.9021 34.4254L72.8777 34.4147ZM77.4587 32.6164C77.1736 32.7493 76.8894 32.8785 76.6062 33.0038C76.3083 32.7599 76.0251 32.4972 75.7585 32.2152C76.2878 32.2472 76.7898 32.2814 77.2556 32.3177L77.3826 32.5069L77.4587 32.6164ZM62.7117 35.1501C62.3425 34.9605 61.9812 34.7544 61.6277 34.5314L60.9685 34.5511C61.4597 34.7606 61.9626 34.9397 62.4792 35.0887L62.7117 35.1501ZM58.7957 33.3685C59.1667 33.3478 59.5583 33.3285 59.9666 33.3106C59.5134 32.9268 59.075 32.5104 58.6521 32.0607C58.157 32.0828 57.6765 32.1078 57.2156 32.1359C57.7244 32.5921 58.2517 33.0027 58.7957 33.3685ZM56.6189 33.0674C56.781 33.2104 56.946 33.349 57.1121 33.4833C55.7947 33.5945 54.9451 33.7323 54.78 33.897C53.4968 35.0886 54.2302 55.4369 54.5056 58.8282C54.8083 62.2151 55.9207 76.2794 56.9031 88.7058L57.0789 90.9256C54.8494 77.5082 52.116 60.7197 51.8474 57.5451C50.9304 46.9127 50.7468 34.2637 51.7556 32.9805C52.322 32.6515 53.7742 32.41 55.7458 32.2422C56.031 32.5317 56.322 32.8068 56.6189 33.0674ZM55.989 30.9111L56.6277 30.8626C56.9304 30.8409 57.2458 30.8202 57.572 30.8005C57.2634 30.4058 56.9646 29.9907 56.6736 29.555C56.0867 29.5898 55.5144 29.6278 54.9607 29.669C55.2947 30.1078 55.6375 30.5218 55.989 30.9111ZM53.6902 29.7718C54.0046 30.2143 54.3279 30.6352 54.658 31.0346C52.4587 31.2691 51.1804 31.5817 50.8386 31.9722C48.822 33.5304 49.0964 41.963 50.3796 56.1702L50.5632 57.6367L50.6492 57.6235L50.656 57.7284C50.9285 60.781 53.3728 75.8603 55.5212 88.816C52.4041 76.0812 48.6902 60.6524 47.8142 56.1701C46.073 47.3709 45.7068 32.8888 47.7234 30.8723C48.1843 30.4366 50.5164 30.0511 53.6902 29.7718ZM54.0642 28.3965C54.3367 28.3702 54.614 28.345 54.8953 28.3207C55.2117 28.2934 55.5339 28.2674 55.8611 28.2428C55.739 28.0307 55.6189 27.8145 55.5007 27.5942C55.3591 27.3317 55.2205 27.0633 55.0847 26.7889C54.4255 26.8275 53.7869 26.8724 53.1707 26.9228C53.4607 27.4376 53.7585 27.9287 54.0642 28.3965ZM51.988 27.0286C52.2712 27.548 52.5613 28.0462 52.8591 28.5233C49.7654 28.8768 47.4832 29.3709 46.8982 29.9557C44.1482 32.7054 45.156 48.8374 46.6228 56.3535C47.49 60.6873 50.95 75.1389 53.9753 87.5782C49.8738 74.9413 44.9675 59.656 43.6882 54.7954C40.9392 44.6213 40.9392 31.6057 43.6882 28.8559C44.3357 28.2093 47.4451 27.4715 51.988 27.0286ZM52.4841 25.6289C53.1326 25.5711 53.7976 25.5205 54.4734 25.4776C54.406 25.3244 54.3396 25.1695 54.2742 25.013C54.197 24.8297 54.1208 24.6441 54.0457 24.4563L53.9382 24.1922C53.2332 24.2142 52.5349 24.2462 51.8494 24.2875C52.0564 24.7493 52.2673 25.1963 52.4841 25.6289ZM50.6824 24.3675C50.8914 24.8393 51.1052 25.2974 51.323 25.7419C47.1189 26.1873 43.7605 26.9507 42.7722 27.9393C39.3806 31.3307 39.7468 45.2629 42.405 55.0704C43.6072 59.5118 47.8464 72.8002 51.7117 84.7469C46.4949 71.5822 40.49 56.4236 39.3826 53.6037C36.2664 45.4461 35.7166 30.7806 39.4744 27.0226C40.6072 25.814 45.1648 24.7922 50.6824 24.3675ZM51.3699 23.17C52.0701 23.1153 52.7683 23.0694 53.4548 23.0323C53.2312 22.507 53.0173 22.0255 52.8093 21.5783C52.2537 21.5764 51.6863 21.5829 51.1101 21.598L50.7439 21.6087L51.2966 22.9897L51.3699 23.17ZM49.574 21.6615L50.2166 23.2684C45.1326 23.7377 40.1619 24.6844 38.6492 26.1977C34.4333 30.3223 34.8914 45.4461 38.283 54.062C38.8025 55.3604 40.3513 59.2776 42.3796 64.4133L48.5349 79.9973C42.8337 67.9137 36.8445 55.2173 35.4412 52.2289C30.2166 41.1382 31.3162 29.2225 35.532 25.0062C37.1912 23.3476 43.0066 22.0215 49.574 21.6615ZM50.2595 20.3785C50.9031 20.3529 51.5496 20.3375 52.1941 20.3327C51.9353 19.842 51.6755 19.391 51.4021 18.9607C50.8357 18.9306 50.2576 18.9118 49.6677 18.9044L49.9148 19.5095L50.2595 20.3785ZM48.7888 19.7028C48.8865 19.9381 48.9851 20.1822 49.0867 20.4365C42.5974 20.8199 36.5798 22.2178 34.7078 24.0896C29.4832 29.2225 29.2996 42.1464 34.3406 52.6872C35.6199 55.4344 40.7654 66.332 46.0095 77.4372C39.6697 65.8517 33.1912 54.0318 31.406 50.854C26.2732 41.7797 26.365 28.2142 31.5896 22.9896C33.6062 20.9731 40.0222 19.2316 46.8054 18.9566C47.363 18.93 47.9119 18.9131 48.4529 18.9055C48.5632 19.1607 48.6746 19.4257 48.7888 19.7028ZM49.1511 17.7155C49.5974 17.7188 50.0671 17.7284 50.5554 17.7466C50.2703 17.3719 49.9646 16.9989 49.6287 16.6126C49.2732 16.5679 48.9109 16.5286 48.5447 16.4947C48.7556 16.8862 48.9548 17.2892 49.1511 17.7155ZM47.6072 17.1278C47.7107 17.3223 47.8113 17.52 47.9109 17.7227C47.4343 17.7317 47.0007 17.747 46.6218 17.7651C39.2888 18.1317 32.8728 19.8732 30.5818 22.1647C25.0818 27.6642 24.8982 41.9631 30.2146 51.4956C31.9187 54.5234 37.821 65.2921 43.8279 76.2644C36.6892 64.788 29.3904 53.0658 27.1892 49.5707C21.1394 39.9465 21.323 27.1142 27.4646 20.973C29.8474 18.5899 36.1716 16.7567 42.863 16.3901C44.364 16.3177 45.8103 16.3203 47.1912 16.3957C47.3367 16.6365 47.4744 16.8794 47.6072 17.1278ZM47.8083 15.2573C48.0183 15.2728 48.2273 15.29 48.4343 15.3088C48.1638 15.0253 47.8777 14.7293 47.5701 14.4165C47.4333 14.3855 47.2947 14.3555 47.156 14.3265C47.3914 14.6417 47.6072 14.9499 47.8083 15.2573ZM45.4714 14.028C45.615 14.1973 45.7517 14.3631 45.8826 14.5263C46.0593 14.7478 46.2253 14.9645 46.3816 15.1786C45.2166 15.1355 44.0105 15.1415 42.7712 15.1985C35.7136 15.5652 29.2058 17.5817 26.6394 20.1481C19.948 26.8392 19.7644 40.0381 26.1814 50.2123C27.9792 53.0728 33.1482 61.3628 38.8601 70.5252L43.4011 77.8076C34.9275 65.6728 25.74 52.4825 22.8816 48.2876C17.2898 40.0383 16.0984 26.0145 23.156 18.9567C25.906 16.207 32.1394 14.0988 38.738 13.7322C41.1101 13.6165 43.3728 13.7198 45.4714 14.028ZM46.0701 12.9826L46.1599 12.9961L45.9792 12.8156L45.7605 12.6003L45.5759 12.4223L45.8035 12.6769L46.0701 12.9826ZM43.3796 11.7677C43.7292 12.1217 44.0515 12.4559 44.3503 12.7745C35.863 11.9765 26.5378 14.3831 22.698 18.2235C15.1824 25.7395 16.4656 40.4966 22.24 49.0209C24.2996 52.0703 29.7292 59.8938 35.8025 68.6099C28.5535 59.1887 21.7869 50.4157 19.0339 46.9126C13.9011 40.3131 12.0681 24.2728 19.4001 16.9401C23.8953 12.4453 34.4548 9.75604 43.3796 11.7677ZM41.655 10.0736L41.9656 10.3678C39.282 9.94808 36.8064 9.95388 34.9822 10.0656C28.2917 10.5239 21.7839 12.9071 18.4841 16.2068C10.5095 24.1811 12.7097 40.7714 18.0261 47.6458C20.2205 50.4481 24.9011 56.4961 30.3435 63.5409C23.3318 55.2022 17.1863 48.0298 14.8181 45.6294C9.95971 40.7715 7.11792 23.1729 15.2761 15.0153C20.574 9.78613 31.866 6.6784 41.365 9.80694L41.655 10.0736ZM39.3621 8.15344L39.3738 8.16265C30.0437 6.08374 19.6042 9.21969 14.5427 14.282C5.74389 22.9896 8.86011 41.2298 13.9929 46.4543C16.5486 49.0107 23.4929 57.1237 31.1804 66.2817C22.5554 56.8104 14.4148 47.9781 10.783 44.3463C8.03296 41.6882 6.01636 36.0053 5.64917 30.2308C5.37475 26.1978 5.74096 18.5901 11.241 13.0906C17.0681 7.26388 29.1042 3.38537 39.3621 8.15344ZM34.8777 5.48095C30.5818 3.5169 26.5105 3.23397 23.4324 3.4663C17.3826 4.01623 11.5164 6.76602 7.20874 11.074C2.80932 15.4736 0.700926 21.7064 1.15893 28.7642C1.52612 34.5387 3.72534 40.2216 6.65893 43.1547C10.6775 47.174 19.7322 56.3573 29.2449 66.0199C21.0251 57.0107 13.4099 48.7582 9.95776 45.2629C7.11596 42.3298 4.91675 36.372 4.54956 30.3225C4.09155 22.9898 6.19995 16.5736 10.5076 12.2657C15.6453 7.12774 25.4802 3.43841 34.8777 5.48095ZM52.5115 92.5384C42.8035 86.547 32.0935 87.0312 24.7156 94.4837C22.1492 97.0502 20.6824 100.533 20.7742 104.382C20.7742 107.341 21.7478 110.246 23.489 112.722C21.6521 107.239 23.0828 100.982 26.5476 97.0503C30.2146 92.834 35.4392 90.4508 41.1218 90.2675C45.0896 90.1088 49.1267 91.1181 52.8748 93.0574L52.5115 92.5384ZM29.5398 118.897L29.6775 118.997L29.6628 118.944L29.5398 118.897ZM29.3894 117.722C29.0046 117.55 28.6208 117.355 28.241 117.137C25.9099 112.009 26.9412 105.064 30.1248 100.991C33.4246 96.6835 38.3738 94.117 43.6902 93.7504C47.5046 93.5003 51.2341 94.4019 54.5574 96.3389C51.8582 95.2007 48.8279 94.8432 45.615 95.2169C39.8406 95.9501 34.5242 99.1582 31.9578 103.466C29.906 106.948 28.489 112.748 29.3894 117.722ZM30.8367 119.325C30.8923 119.496 30.9519 119.664 31.0144 119.83C31.1326 119.893 31.2507 119.953 31.3689 120.012C31.4626 120.058 31.5564 120.103 31.6501 120.146L31.8738 120.247C31.9792 120.293 32.0847 120.337 32.1912 120.38C32.1521 120.129 32.1199 119.876 32.0916 119.621L31.8191 119.566C31.491 119.496 31.1628 119.417 30.8367 119.325ZM32.0066 118.578C31.5066 118.469 31.0105 118.332 30.5164 118.164C29.4412 113.44 30.6931 107.542 32.783 104.016C35.2576 99.9831 40.2068 96.9584 45.615 96.3168C49.3015 95.8559 52.7996 96.5299 55.7341 98.2026L55.7478 98.2374C53.7048 97.3826 51.3601 97.1091 48.821 97.4169C43.1384 98.1501 37.5466 101.908 34.7058 106.857C32.8279 110.156 31.7937 114.55 32.0066 118.578ZM32.8845 119.755C32.9207 120.068 32.9656 120.377 33.0203 120.682C33.6111 120.873 34.2087 121.021 34.8132 121.131C34.8054 120.737 34.8074 120.339 34.8201 119.94C34.4646 119.922 34.1082 119.897 33.7517 119.861C33.4626 119.833 33.1736 119.797 32.8845 119.755ZM34.8708 118.944C34.1765 118.91 33.4851 118.842 32.7966 118.729C32.5808 114.884 33.5798 110.617 35.3474 107.499C38.0056 102.916 43.321 99.3417 48.6375 98.6084C50.1853 98.4021 52.1384 98.399 54.1394 99.0235C53.1492 98.8835 52.116 98.8912 51.0203 99.0665C45.7957 99.7998 40.2966 104.291 37.2712 110.065C35.9451 112.563 35.0994 115.774 34.8708 118.944ZM36.1248 120.59C36.1228 120.833 36.1248 121.075 36.1296 121.315C36.8005 121.383 37.4763 121.413 38.155 121.417C38.2117 120.907 38.281 120.397 38.3591 119.892C37.6267 119.937 36.8855 119.967 36.1394 119.969C36.1316 120.177 36.1267 120.384 36.1248 120.59ZM38.531 118.876C37.7537 118.929 36.9744 118.966 36.197 118.97C36.4285 116.009 37.2009 113.009 38.3718 110.707C41.2126 105.207 46.3455 100.991 51.2039 100.258C53.2302 99.9416 55.1238 100.237 56.7966 101.144C55.5437 100.763 54.1687 100.708 52.6716 101.083C47.5388 102.274 41.8552 107.865 39.9304 113.457C39.3933 115.016 38.8933 116.895 38.531 118.876ZM39.5505 120.299C39.5271 120.463 39.5046 120.628 39.4841 120.792C39.4578 120.994 39.4333 121.196 39.4119 121.397C39.6687 121.388 39.9265 121.376 40.1833 121.362C40.7068 121.333 41.2302 121.295 41.7527 121.252C41.8064 120.883 41.8621 120.525 41.9187 120.181C41.9519 119.983 41.9851 119.79 42.0193 119.602L40.9392 119.69L40.8601 119.697L40.1541 119.758L39.6248 119.801C39.5984 119.967 39.574 120.133 39.5505 120.299ZM42.2253 118.525C41.7966 118.574 41.3679 118.628 40.9392 118.681L40.7195 118.7L39.8005 118.779C40.1238 117.048 40.575 115.328 41.1218 113.732C42.864 108.415 48.1804 103.191 52.946 102.091C54.6384 101.715 56.1169 101.854 57.3806 102.477C56.5808 102.283 55.6814 102.324 54.781 102.549C49.8308 103.741 44.4236 110.982 42.6814 116.665C42.5398 117.127 42.3826 117.764 42.2253 118.525ZM43.197 119.516C43.1511 119.763 43.1062 120.018 43.0632 120.28C43.0164 120.562 42.9714 120.851 42.9275 121.147C43.2458 121.103 43.575 121.064 43.9119 121.031C44.2761 120.995 44.6501 120.965 45.031 120.942L45.1208 120.372L45.1267 120.338L45.1296 120.325L45.157 120.148C45.1824 120.019 45.2097 119.889 45.24 119.758C45.2634 119.653 45.2878 119.548 45.3142 119.442C44.6218 119.441 43.9148 119.471 43.197 119.516ZM45.6267 118.317L45.3386 118.315C44.7009 118.315 44.0623 118.35 43.4246 118.404C43.5417 117.884 43.6619 117.42 43.782 117.031C45.4314 111.715 50.5642 104.841 55.0554 103.741C56.1248 103.474 57.1453 103.596 58.0105 104.073L58.0164 104.09C57.3962 103.931 56.7761 104.023 56.156 104.199C52.1902 105.356 47.4041 112.547 45.6267 118.317ZM46.5349 119.48C46.4617 119.771 46.4001 120.055 46.3484 120.331L46.2937 120.629L46.2498 120.891C46.5261 120.885 46.8025 120.881 47.0798 120.881C47.5232 120.881 47.9617 120.894 48.3953 120.923C48.4822 120.555 48.5808 120.175 48.6902 119.786C47.9958 119.623 47.2751 119.527 46.5349 119.48ZM47.8455 118.483C47.5183 118.434 47.1873 118.398 46.8523 118.371C48.5349 113.088 53.0222 106.355 56.4314 105.299C56.8855 105.163 57.2947 105.139 57.6707 105.228L57.5515 105.263L57.4373 105.299C54.4265 106.35 50.7722 113.178 49.0115 118.713C48.6287 118.617 48.24 118.541 47.8455 118.483ZM49.8806 120.147L49.7664 120.553C49.7205 120.721 49.6765 120.888 49.6355 121.053C50.365 121.161 51.0759 121.327 51.7644 121.568L51.8582 121.209C51.2322 120.753 50.571 120.407 49.8806 120.147ZM52.1541 120.118C51.5281 119.686 50.8787 119.349 50.2068 119.09C51.9373 113.793 55.4304 107.42 57.8044 106.582C57.99 106.508 58.1599 106.479 58.3152 106.489L58.3269 106.635C56.2615 107.648 53.7107 114.531 52.1541 120.118ZM54.572 122.481C54.1628 121.933 53.7302 121.446 53.2712 121.019C54.4734 116.556 56.3884 111.28 57.9382 108.991C56.6726 111.575 55.4333 117.563 54.572 122.481ZM55.5955 124.075L55.5017 123.909C56.0994 120.446 56.9001 116.455 57.6667 113.469C57.199 116.791 56.7791 121.274 56.4636 125.124C56.408 125.048 56.3523 124.973 56.2957 124.9C56.2312 124.817 56.1667 124.735 56.1013 124.655C55.9373 124.453 55.7683 124.26 55.5955 124.075ZM57.3552 132.483L57.4656 133.056L57.5642 133.6L57.2546 133.578V133.163L57.2576 132.958C57.2615 132.821 57.2673 132.656 57.2761 132.466L57.3552 132.483ZM55.6091 126.461L55.7244 126.744L55.7039 126.736C55.4968 126.658 55.2869 126.586 55.075 126.521L55.1375 126.118C55.2966 126.225 55.4539 126.34 55.6091 126.461ZM79.363 32.8722L79.8894 32.6042L79.9402 32.6127C80.1794 32.6531 80.3796 32.6948 80.5378 32.7376L80.5925 32.7609L80.655 32.8549C80.3562 32.9825 80.0583 33.1064 79.7625 33.2264C79.6248 33.1126 79.491 32.9946 79.363 32.8722ZM61.5955 152.687H61.2253C60.196 157.714 54.7654 186.926 67.1531 193.75C75.0076 198.114 88.2898 192.938 106.798 178.366C94.1414 187.931 83.9636 192.742 76.321 192.742C73.8464 192.742 71.6462 192.192 69.7214 191.184C56.9705 184.429 60.7126 157.838 61.5955 152.687ZM146.071 31.9724C145.7 31.6017 145.366 31.219 145.066 30.8256L142.401 31.2507L137.915 31.9722C131.596 33.0217 125.619 33.9861 120.135 34.7719C126.467 34.203 133.05 33.4982 138.912 32.8704L138.953 32.8661L138.988 32.8621L139.02 32.8586L141.306 32.6138L143.589 32.3589L146.172 32.0738L146.071 31.9724ZM144.725 28.228C144.934 28.6951 145.179 29.1508 145.467 29.5933L145.651 29.5635C145.54 29.0808 145.452 28.5891 145.385 28.0907L144.725 28.228ZM145.255 26.7512L144.253 26.9591C144.099 26.4547 143.98 25.94 143.889 25.4173C144.333 25.3072 144.771 25.2 145.204 25.096C145.204 25.6513 145.219 26.204 145.255 26.7512ZM144.216 24.1047L143.731 24.2237C143.694 23.8352 143.671 23.4434 143.657 23.049C143.649 22.8267 143.645 22.6036 143.644 22.3798C144.219 22.224 144.782 22.0761 145.333 21.9371C145.287 22.5763 145.249 23.219 145.226 23.861L144.216 24.1047ZM145.44 20.5639C144.863 20.7048 144.273 20.8556 143.671 21.0154C143.701 20.2686 143.755 19.5181 143.817 18.7694C144.438 18.6064 145.042 18.4589 145.627 18.3282L145.529 19.5146L145.523 19.5982L145.511 19.732L145.44 20.5639ZM145.717 17.0876C145.137 17.2088 144.541 17.3467 143.928 17.5L143.942 17.3519L143.963 17.1236L144.004 16.6242L144.015 16.4877L144.106 15.3245C144.338 15.2802 144.565 15.2394 144.79 15.2024C145.134 15.1458 145.47 15.098 145.799 15.0594C145.792 15.716 145.76 16.3947 145.717 17.0876ZM145.779 13.8052L145.457 13.8427C145.045 13.8936 144.622 13.9579 144.189 14.0347C144.222 13.3967 144.242 12.7714 144.235 12.1621C144.718 12.1575 145.181 12.1808 145.623 12.234C145.704 12.7334 145.754 13.2589 145.779 13.8052ZM145.347 11.0303C145.123 11.0146 144.894 11.0054 144.661 11.0023C144.505 11.0003 144.347 11.001 144.188 11.0045C144.172 10.7805 144.15 10.5592 144.124 10.3407C144.108 10.2151 144.092 10.0904 144.073 9.96658C144.057 9.86712 144.042 9.76831 144.024 9.67013C144.344 9.76589 144.65 9.88177 144.944 10.0187C144.995 10.1193 145.043 10.2222 145.089 10.3272C145.119 10.3978 145.148 10.4693 145.177 10.5418C145.209 10.6242 145.24 10.7078 145.269 10.7926C145.297 10.8708 145.323 10.9501 145.347 11.0303ZM76.1951 34.4872L76.3425 34.443L76.0818 34.4396L76.1951 34.4872ZM82.1912 32.1691L82.3093 32.114L81.783 32.0247L81.8113 32.0535L81.8201 32.0639C81.8855 32.0964 82.0144 32.1318 82.1912 32.1691ZM64.5369 34.4668C64.8621 34.6792 65.1951 34.8763 65.5349 35.0581L65.3201 34.9971C64.8474 34.8494 64.3865 34.6764 63.9373 34.4776L64.5369 34.4668ZM62.8992 33.2112L61.7507 33.2438C61.5066 33.0731 61.2664 32.893 61.03 32.7035C60.7537 32.4825 60.4832 32.2488 60.2185 32.0022L60.8982 31.9831L61.6541 31.9657C62.0525 32.4121 62.4675 32.8274 62.8992 33.2112ZM60.5974 30.6578L60.0066 30.6803C59.6589 30.6942 59.321 30.7089 58.9929 30.7245C58.9128 30.6308 58.8328 30.5357 58.7537 30.4392L58.5447 30.1816C58.4714 30.0893 58.3982 29.9958 58.3259 29.9011C58.2214 29.7641 58.1179 29.6246 58.0154 29.4825C58.5876 29.4545 59.1687 29.4296 59.7566 29.408C60.0261 29.8437 60.3064 30.2604 60.5974 30.6578ZM57.7791 28.1169L57.1326 28.1554C56.8533 27.7003 56.5818 27.2237 56.3191 26.7252C56.7146 26.7075 57.1169 26.692 57.5251 26.679L58.3064 26.6572C58.4158 26.8999 58.5271 27.1384 58.6404 27.3725C58.7039 27.5036 58.7683 27.6333 58.8337 27.7617L58.9851 28.0555L58.2712 28.0903L57.7791 28.1169ZM57.7527 25.3317C57.0535 25.3498 56.3572 25.376 55.6687 25.4101C55.4812 25.0053 55.2976 24.5879 55.1189 24.1578C55.8464 24.1403 56.5564 24.1337 57.2478 24.1377C57.4148 24.5098 57.5828 24.9064 57.7527 25.3317ZM55.3357 22.9672C55.0789 22.971 54.8425 22.9759 54.6316 22.9812C54.4226 22.4856 54.2224 22.0261 54.0281 21.5962C54.6873 21.6134 55.3298 21.6428 55.9548 21.6839C56.0876 21.8948 56.2185 22.1139 56.3484 22.343C56.4314 22.4897 56.5144 22.6405 56.5964 22.7959L56.6814 22.9594L56.0066 22.9602L55.3357 22.9672ZM55.0388 20.3834C54.5066 20.36 53.9705 20.3445 53.4314 20.3369C53.2029 19.8791 52.9763 19.4557 52.7449 19.055C53.1755 19.0929 53.5984 19.1375 54.0115 19.189C54.3757 19.5811 54.7156 19.9722 55.0388 20.3834ZM52.7253 17.8809C52.4705 17.8585 52.2175 17.8388 51.9685 17.8215C51.7458 17.4969 51.5134 17.1803 51.2654 16.8636C51.4382 16.895 51.6091 16.9279 51.7791 16.9622L51.8933 17.0722C52.1843 17.3543 52.4617 17.6222 52.7253 17.8809ZM50.3533 15.5372L50.1169 15.5031C49.9626 15.331 49.8015 15.1558 49.6345 14.9763L49.8689 15.0527L50.3533 15.5372ZM41.3962 91.2758C45.6794 91.1516 50.0056 92.3307 53.8884 94.6421L54.0193 94.8808C50.8347 93.2772 47.2957 92.507 43.6902 92.7421C38.0076 93.0171 32.783 95.8585 29.2996 100.349C26.2273 104.29 25.0046 110.713 26.6599 116C22.5056 110.313 23.5457 102.288 27.5564 97.6919C31.0388 93.7505 35.989 91.4591 41.3962 91.2758ZM31.9089 121.638L31.8572 121.556C31.9685 121.598 32.0808 121.638 32.1931 121.676L32.4685 121.767C32.4939 121.868 32.5193 121.968 32.5466 122.069C32.3318 121.934 32.1189 121.791 31.9089 121.638ZM33.5095 122.606C33.4431 122.41 33.3816 122.212 33.324 122.01C33.8367 122.139 34.3523 122.239 34.8699 122.316C34.8923 122.614 34.9226 122.909 34.9578 123.2C34.7634 123.135 34.5701 123.065 34.3777 122.99L34.1443 122.895C33.9314 122.806 33.7195 122.71 33.5095 122.606ZM36.3093 123.567C36.2585 123.206 36.2175 122.837 36.1882 122.462C36.4656 122.484 36.7429 122.499 37.0203 122.51C37.364 122.523 37.7068 122.528 38.0496 122.528C38.0349 122.711 38.0222 122.894 38.0115 123.077C37.9968 123.328 37.9851 123.578 37.9773 123.827C37.4158 123.769 36.8591 123.685 36.3093 123.567ZM39.2595 123.39L39.2732 123.106C39.2839 122.905 39.2966 122.703 39.3113 122.499C39.5652 122.489 39.8181 122.476 40.0701 122.461L40.6365 122.424C40.9617 122.402 41.2849 122.376 41.6062 122.35C41.5437 122.858 41.4861 123.381 41.4363 123.911L40.9294 123.926C40.7595 123.93 40.5896 123.933 40.4197 123.934C40.0261 123.936 39.6335 123.931 39.2429 123.916C39.2468 123.742 39.2527 123.567 39.2595 123.39ZM42.6912 123.021C42.7185 122.761 42.7488 122.503 42.78 122.248C43.4802 122.188 44.1746 122.129 44.8611 122.085C44.7937 122.56 44.7195 123.107 44.6443 123.706L44.5154 123.722C43.8806 123.769 43.2439 123.816 42.6091 123.854C42.6345 123.575 42.6619 123.297 42.6912 123.021ZM45.865 123.574C45.9324 123.024 46.0027 122.503 46.072 122.024C46.4568 122.011 46.8376 122.005 47.2136 122.01C47.533 122.014 47.8494 122.024 48.1619 122.044C48.113 122.316 48.073 122.578 48.0427 122.829C48.0242 122.978 48.0085 123.123 47.9968 123.264L47.9773 123.457C47.28 123.474 46.5691 123.513 45.865 123.574ZM49.196 123.453C49.2341 123.054 49.2986 122.624 49.3865 122.17C50.1091 122.278 50.8093 122.446 51.4832 122.695C51.408 123.009 51.3376 123.314 51.2722 123.607C50.5945 123.514 49.9011 123.467 49.196 123.453ZM52.5828 123.853L52.7117 123.264C52.8386 123.335 52.9636 123.41 53.0876 123.489C53.2332 123.582 53.3757 123.679 53.5173 123.783C53.7605 123.96 53.9978 124.153 54.2292 124.364L54.2478 124.381L54.2449 124.4C53.7068 124.17 53.1521 123.991 52.5828 123.853ZM79.4109 34.5922L79.3816 34.6033L79.4226 34.619L79.4402 34.6142L79.4109 34.5922ZM62.7341 152.687H63.1248C62.6013 157.54 60.4109 181.392 72.9294 187.609C74.8542 188.617 77.0544 189.075 79.5291 189.075C87.573 189.075 98.2908 183.807 111.553 173.296C92.3855 188.96 78.5544 194.676 70.2712 190.267C58.1082 183.848 61.9802 157.19 62.7341 152.687ZM147.094 33.1122L147.164 33.2207L147.244 33.342C147.305 33.4341 147.369 33.5254 147.434 33.616C147.51 33.7199 147.587 33.8228 147.667 33.9247L144.882 34.0803C140.59 34.3328 135.796 34.6045 130.932 34.8558C134.301 34.5035 137.827 34.1195 141.49 33.7138L144.683 33.3708L144.692 33.3699L147.094 33.1122ZM147.726 31.9039C147.482 31.4543 147.277 30.9873 147.105 30.5055L147.961 30.373C148.009 30.8766 148.072 31.3722 148.156 31.8574L147.726 31.9039ZM146.77 29.3837L147.88 29.2075C147.868 28.9698 147.86 28.7308 147.855 28.4909L147.848 28.1192L147.845 27.5922L146.485 27.865C146.512 28.0718 146.544 28.2768 146.58 28.4802C146.634 28.7855 146.697 29.0869 146.77 29.3837ZM146.357 26.5262C146.872 26.4223 147.376 26.322 147.87 26.2253C147.878 25.9689 147.887 25.7123 147.899 25.4559L147.919 25.0601L147.95 24.4642C147.416 24.5809 146.87 24.7042 146.314 24.8334C146.31 25.4051 146.323 25.9702 146.357 26.5262ZM146.344 23.5991L147.269 23.3899L148.026 23.2242L148.091 22.2563L148.167 21.2815C147.614 21.3961 147.045 21.523 146.461 21.6612C146.412 22.3106 146.371 22.9577 146.344 23.5991ZM146.571 20.297L147.223 20.1518C147.436 20.1056 147.647 20.0611 147.856 20.0182L148.259 19.9369C148.302 19.217 148.335 18.5116 148.344 17.8301C147.831 17.9 147.298 17.9889 146.745 18.0953C146.709 18.599 146.669 19.1072 146.629 19.6177L146.623 19.6899L146.571 20.297ZM146.822 16.8732C147.343 16.7807 147.848 16.7035 148.338 16.6428C148.329 16.3364 148.314 16.0365 148.293 15.744C148.272 15.4749 148.247 15.2121 148.214 14.9564C148.049 14.9486 147.881 14.9443 147.71 14.9435C147.565 14.9428 147.419 14.9446 147.27 14.9488C147.142 14.9524 147.013 14.9578 146.883 14.9649C146.881 15.5866 146.857 16.2244 146.822 16.8732ZM147.441 13.7024C147.625 13.7005 147.805 13.7021 147.983 13.7073C147.9 13.3773 147.801 13.0648 147.682 12.7721C147.385 12.6417 147.07 12.5333 146.742 12.4458C146.796 12.8587 146.833 13.2841 146.855 13.7199C147.053 13.7103 147.249 13.7045 147.441 13.7024ZM146.507 11.1756L146.665 11.2065L146.535 11.0832L146.467 11.021L146.507 11.1756ZM52.3718 124.928C52.9568 125.069 53.5222 125.26 54.0642 125.513L53.949 126.235C53.3787 126.119 52.7957 126.04 52.2058 125.991C52.2214 125.866 52.24 125.737 52.2605 125.605L52.3162 125.25L52.3718 124.928ZM49.0847 124.575C49.4158 124.577 49.7439 124.587 50.0671 124.605C50.3972 124.624 50.7224 124.652 51.0437 124.691C50.9539 125.149 50.8826 125.563 50.8308 125.925L50.4734 125.922L50.0281 125.925L49.7087 125.931L49.2761 125.941L48.9509 125.95L49.0164 125.273L49.0847 124.575ZM45.5964 126.06C45.6384 125.607 45.6833 125.163 45.7302 124.73C46.4529 124.673 47.1658 124.624 47.865 124.597C47.8191 125.072 47.7761 125.536 47.7351 125.989L47.0554 126.005L46.5261 126.013L46.1648 126.014L45.5964 126.06ZM44.3611 124.84L44.5105 124.829C44.4626 125.253 44.4158 125.695 44.3718 126.148C43.7332 126.19 43.0925 126.221 42.4539 126.232L42.4695 125.868L42.4871 125.546L42.5222 124.964C43.1365 124.928 43.7498 124.884 44.3611 124.84ZM39.2439 125.031C39.9412 125.053 40.6433 125.046 41.3455 125.02C41.3171 125.421 41.2937 125.823 41.2761 126.225C40.6091 126.206 39.947 126.156 39.2947 126.064L39.2742 125.77L39.2585 125.452L39.2439 125.031ZM36.5251 124.759C37.0017 124.844 37.4822 124.908 37.9646 124.952C37.9675 125.243 37.9763 125.532 37.991 125.817C37.5505 125.71 37.1169 125.579 36.6902 125.42C36.6306 125.204 36.575 124.983 36.5251 124.759ZM34.3689 124.193C34.4724 124.229 34.5759 124.264 34.6794 124.298C34.8367 124.35 34.9958 124.398 35.155 124.443L35.2146 124.732C34.95 124.582 34.6892 124.418 34.4333 124.238L34.3689 124.193ZM57.9265 22.9745C57.7234 22.5529 57.5193 22.1616 57.3132 21.7943C57.5623 21.8185 57.8074 21.8447 58.0496 21.8728C58.2664 21.898 58.4802 21.9247 58.6912 21.953C59.0105 22.2917 59.3162 22.6462 59.6091 23.0309C59.0261 23.0037 58.4617 22.9857 57.9265 22.9745ZM58.9412 25.3088L58.8142 25.0061C58.696 24.7106 58.5789 24.4276 58.4626 24.1561C59.1375 24.1728 59.7908 24.2002 60.4226 24.238C60.6189 24.5693 60.8113 24.9239 60.9968 25.3072C60.3152 25.2995 59.6277 25.3002 58.9412 25.3088ZM60.2683 28.0041C60.0193 27.5677 59.7791 27.1118 59.5466 26.636C60.241 26.6286 60.9197 26.6291 61.5808 26.6373L61.7166 26.948L61.7898 27.1127C61.9197 27.399 62.0525 27.6792 62.1892 27.9531C61.5466 27.965 60.905 27.9821 60.2683 28.0041ZM62.0447 30.6115C61.9724 30.5235 61.9011 30.4343 61.8298 30.3439C61.5847 30.0317 61.3464 29.7053 61.115 29.3643C61.7205 29.3476 62.3289 29.3344 62.9373 29.3251C63.197 29.7616 63.4685 30.1791 63.7507 30.5775L63.0154 30.5903L62.571 30.5973L62.0447 30.6115ZM64.7498 33.1718C64.2351 32.8034 63.741 32.3934 63.2693 31.9408C63.781 31.9354 64.2976 31.9322 64.8171 31.931C65.2009 32.3682 65.6013 32.7757 66.0203 33.1528L64.7498 33.1718ZM68.8591 35.1104C68.6248 35.0482 68.3923 34.9799 68.1628 34.9053C67.9421 34.8316 67.7244 34.7526 67.5095 34.6683C67.321 34.5943 67.1345 34.5163 66.9509 34.4341L67.6765 34.4272C68.0593 34.6761 68.4529 34.9039 68.8591 35.1104ZM56.1638 20.0071C56.0242 19.8172 55.8816 19.6323 55.7351 19.4511L56.0457 19.5093L56.2478 19.6898L56.9216 20.2795L57.2 20.5265C56.9656 20.5055 56.7302 20.4863 56.4929 20.4688L56.3904 20.3229C56.3162 20.2159 56.241 20.1108 56.1638 20.0071ZM64.7136 152.687H64.2341C63.7546 157.163 61.6306 180.681 73.3875 186.601C81.2185 190.485 93.4265 186.011 109.828 173.242C98.9011 181.333 89.8113 185.409 82.6433 185.409C80.2595 185.409 78.0603 184.951 76.1355 184.034C63.9412 178.355 64.4568 157.227 64.7136 152.687ZM150.107 33.7884L149.668 33.813C149.556 33.5069 149.459 33.1917 149.373 32.8685L150.384 32.7618C150.404 33.1023 150.43 33.4382 150.463 33.769L150.107 33.7884ZM150.338 31.6239L149.13 31.7526C149.111 31.6484 149.094 31.5435 149.079 31.4381C149.059 31.3119 149.041 31.1849 149.024 31.057C148.988 30.7831 148.958 30.5053 148.933 30.224L150.333 30.013C150.325 30.5565 150.325 31.0943 150.338 31.6239ZM150.362 28.823L148.861 29.0536C148.841 28.5103 148.837 27.9571 148.844 27.3969C149.385 27.2924 149.918 27.1917 150.44 27.0954C150.41 27.6733 150.382 28.2501 150.362 28.823ZM149.283 25.9539L148.882 26.0299C148.892 25.7695 148.904 25.5081 148.918 25.2461L148.942 24.7934L148.974 24.2454C149.54 24.1278 150.092 24.0184 150.627 23.918L150.562 25.0062L150.518 25.7259C150.115 25.7988 149.703 25.8748 149.283 25.9539ZM149.825 22.8545C149.572 22.9037 149.316 22.955 149.055 23.0082L149.098 22.3479L149.11 22.2043L149.192 21.0798L149.532 21.0183C149.749 20.9798 149.963 20.9437 150.174 20.9098C150.377 20.8774 150.576 20.8471 150.773 20.8191C150.757 21.4263 150.728 22.0522 150.695 22.6898C150.41 22.7419 150.12 22.7968 149.825 22.8545ZM150.789 19.5104C150.302 19.5762 149.799 19.6551 149.28 19.7461C149.321 19.0522 149.35 18.3731 149.361 17.7143C149.831 17.6723 150.281 17.6491 150.709 17.646C150.761 18.2299 150.785 18.8548 150.789 19.5104ZM150.552 16.4828C150.168 16.4874 149.77 16.5063 149.359 16.5386C149.347 16.0304 149.32 15.5376 149.272 15.0632C149.606 15.1168 149.924 15.1887 150.225 15.2801C150.362 15.6433 150.469 16.0462 150.552 16.4828ZM149.268 13.8159L149.084 13.7908L149.048 13.6179C149.123 13.6816 149.196 13.7476 149.268 13.8159ZM56.2263 128.149C55.8035 127.928 55.366 127.747 54.9148 127.6C54.8621 127.972 54.8132 128.324 54.7712 128.654C55.2449 128.719 55.7107 128.807 56.1687 128.92L56.2263 128.149ZM53.7839 127.304C53.2371 127.193 52.6755 127.12 52.0994 127.077L52.031 127.755L51.9773 128.49L52.1208 128.489C52.6189 128.489 53.113 128.503 53.6003 128.536L53.7097 127.799L53.7839 127.304ZM50.7107 127.023C50.1013 127.018 49.4802 127.036 48.8494 127.065C48.7996 127.624 48.7546 128.161 48.7146 128.676C49.366 128.61 49.9861 128.562 50.5818 128.531L50.656 127.572L50.7107 127.023ZM46.4402 127.205L45.4929 127.274C45.4597 127.702 45.4304 128.133 45.405 128.563L45.3855 128.903C46.0837 128.875 46.7908 128.832 47.5027 128.789C47.5427 128.255 47.5867 127.703 47.6355 127.131L46.4402 127.205ZM44.2644 127.353C43.6492 127.387 43.0359 127.411 42.4255 127.416C42.4207 127.918 42.4265 128.411 42.4441 128.891C43.0056 128.927 43.5769 128.939 44.156 128.934L44.1746 128.612L44.2185 127.96L44.2644 127.353ZM41.2429 127.402C40.6316 127.38 40.0251 127.334 39.4255 127.255C39.4861 127.667 39.5613 128.064 39.6531 128.443C40.1736 128.589 40.7078 128.696 41.2527 128.772C41.24 128.322 41.2371 127.864 41.2429 127.402ZM38.0886 127.018C37.9275 126.981 37.7664 126.942 37.6062 126.899L37.3962 126.841L37.1589 126.771C37.2263 126.93 37.2976 127.085 37.3728 127.236L37.4636 127.414L37.5535 127.581L37.6619 127.64L37.8093 127.72L37.9167 127.775L38.0378 127.835L38.2166 127.919C38.1658 127.625 38.1238 127.324 38.0886 127.018ZM61.7087 24.3318C61.8738 24.6453 62.0339 24.9768 62.1912 25.3293C62.7673 25.3443 63.3376 25.3654 63.8992 25.3929C63.6619 25.067 63.4109 24.7655 63.1462 24.4813C62.6833 24.4247 62.2039 24.3748 61.7087 24.3318ZM62.7498 26.6601C62.9421 27.1031 63.1443 27.5287 63.3552 27.9372C63.9822 27.9317 64.6082 27.9313 65.2292 27.9362L65.1179 27.666L65.0447 27.481C64.9919 27.3495 64.9373 27.2215 64.8816 27.0965C64.8269 26.9746 64.7712 26.8556 64.7136 26.7395C64.0818 26.7049 63.4265 26.6783 62.7498 26.6601ZM64.1423 29.3117C64.24 29.4664 64.3396 29.6181 64.4412 29.7669C64.5417 29.9141 64.6433 30.0585 64.7468 30.2L64.8494 30.3388L65.0193 30.5602L65.8357 30.5526L66.5828 30.5482C66.5046 30.4255 66.4275 30.3009 66.3523 30.1745C66.2644 30.0276 66.1785 29.8782 66.0945 29.7263C66.0183 29.5898 65.9441 29.4513 65.8708 29.3108C65.3005 29.3073 64.7224 29.3077 64.1423 29.3117ZM66.24 31.9331C66.6892 32.3737 67.1619 32.7746 67.6589 33.1368L68.6912 33.1314C68.3044 32.7635 67.9373 32.3679 67.5906 31.9443C67.1414 31.9391 66.6912 31.9354 66.24 31.9331ZM70.821 34.8136L71.031 34.8846C70.7742 34.736 70.5242 34.5789 70.28 34.4131L69.8484 34.4144C70.1648 34.559 70.489 34.692 70.821 34.8136ZM60.3464 22.2169C60.5671 22.4982 60.781 22.795 60.99 23.1117C61.2351 23.1291 61.4822 23.1483 61.7302 23.1695C61.3582 22.8628 60.9714 22.5646 60.5769 22.261L60.3464 22.2169ZM65.7429 152.687H66.1541C66.2517 156.711 67.3318 175.463 79.3435 180.551C81.2683 181.468 83.4675 181.834 85.7595 181.834C93.4109 181.834 102.974 177.347 114.309 168.401C97.5486 182.058 84.8699 187.028 76.5017 183.118C64.9939 177.698 65.5486 156.647 65.7429 152.687ZM151.734 33.6997L153.068 33.6269L153.074 33.0632L153.087 32.4816L151.649 32.6295C151.661 32.8417 151.676 33.0521 151.693 33.2605L151.734 33.6997ZM151.606 31.4907L153.124 31.3343C153.146 30.7592 153.176 30.1791 153.207 29.5968L152.336 29.72L151.607 29.8253C151.596 30.3857 151.594 30.9423 151.606 31.4907ZM151.642 28.6315C152.201 28.5491 152.746 28.4705 153.275 28.3959L153.312 27.7558L153.379 26.5854L152.662 26.7032L151.732 26.8629L151.675 27.9054L151.642 28.6315ZM151.819 25.4973C152.38 25.4018 152.923 25.3132 153.448 25.2318C153.476 24.6267 153.498 24.0297 153.511 23.448L152.965 23.5245L152.744 23.5573L152.34 23.6199L151.924 23.6877L151.846 25.0979L151.819 25.4973ZM151.986 22.4672C152.218 22.4297 152.446 22.3945 152.671 22.3614C152.962 22.3184 153.247 22.279 153.525 22.2434C153.523 21.6634 153.508 21.1054 153.475 20.5773C153.024 20.5877 152.547 20.6177 152.047 20.6658L152.036 21.1306C152.024 21.5691 152.007 22.0152 151.986 22.4672ZM152.051 19.3666C152.501 19.3255 152.933 19.2979 153.349 19.2845C153.278 18.7736 153.181 18.3061 153.053 17.8923C152.903 17.8538 152.747 17.8199 152.586 17.7907C152.387 17.7546 152.181 17.7255 151.969 17.703C152.015 18.2345 152.042 18.7907 152.051 19.3666ZM151.819 16.5244C152.016 16.5407 152.21 16.5618 152.398 16.5879C152.368 16.5511 152.337 16.5157 152.304 16.4817C152.123 16.2996 151.925 16.1351 151.714 15.9873L151.766 16.2415L151.819 16.5244ZM54.6511 129.669C54.9011 129.699 55.1482 129.737 55.3923 129.781C55.6296 129.824 55.864 129.875 56.0955 129.932L56.0095 131.158C55.8191 131.138 55.6267 131.122 55.4343 131.108C55.2986 131.098 55.1619 131.09 55.0251 131.083C54.8601 131.075 54.6951 131.069 54.53 131.064C54.5535 130.739 54.5759 130.458 54.5974 130.23L54.6248 129.925L54.6511 129.669ZM53.4539 129.57C53.4216 129.807 53.405 129.941 53.405 129.955L53.3845 130.289L53.3816 130.318L53.3748 130.433L53.3357 131.06C52.825 131.07 52.3132 131.092 51.8025 131.12L51.8376 130.559L51.9041 129.554L52.3162 129.548L52.7185 129.549C52.9656 129.551 53.2107 129.558 53.4539 129.57ZM48.6335 129.75C49.2634 129.698 49.8875 129.649 50.5027 129.613L50.4519 130.339C50.4304 130.635 50.4109 130.926 50.3923 131.212L50.0125 131.238L49.2556 131.285L48.532 131.327C48.5603 130.828 48.5945 130.303 48.6335 129.75ZM46.3386 129.914C46.7019 129.894 47.0652 129.869 47.4285 129.843C47.3923 130.376 47.3621 130.889 47.3357 131.381C46.6462 131.404 45.9685 131.411 45.3064 131.387C45.3093 130.921 45.3201 130.443 45.3376 129.959L45.6589 129.947L45.9255 129.935L46.3386 129.914ZM42.5017 129.91C43.032 129.952 43.5681 129.972 44.1072 129.976C44.0906 130.422 44.0808 130.866 44.0779 131.305C43.8298 131.28 43.5847 131.248 43.3435 131.211C43.1013 131.173 42.8621 131.129 42.6267 131.078L42.5759 130.682C42.5466 130.432 42.5222 130.174 42.5017 129.91ZM39.9695 129.502C40.407 129.614 40.8513 129.703 41.3005 129.771L41.3201 130.046L41.3367 130.251C41.3513 130.41 41.3669 130.568 41.3845 130.723C41.0027 130.586 40.6326 130.423 40.2761 130.23C40.1648 130 40.0623 129.757 39.9695 129.502ZM66.6921 27.9578C66.5662 27.6839 66.4451 27.4027 66.3279 27.1144L66.2742 26.9826L66.2156 26.8406C66.8718 26.8935 67.4958 26.9559 68.0857 27.0275C68.3093 27.3322 68.5105 27.6617 68.6873 28.0226C68.0359 27.9941 67.3689 27.9726 66.6921 27.9578ZM68.1785 30.5477C67.9041 30.1634 67.6443 29.7574 67.3982 29.3296C68.0476 29.3419 68.6833 29.3597 69.3005 29.3832C69.5017 29.7934 69.7156 30.1865 69.9431 30.5626C69.3386 30.5544 68.7468 30.5498 68.1785 30.5477ZM70.6707 33.1305C70.2078 32.7822 69.7722 32.396 69.3621 31.9723L69.7664 31.9808L70.95 32.0104C71.2703 32.4112 71.6121 32.7866 71.9724 33.1367L70.6707 33.1305ZM65.532 25.4929C65.3796 25.24 65.2205 25.0001 65.0544 24.7712C65.3044 24.8173 65.5466 24.8659 65.783 24.9168C66.1003 25.1334 66.405 25.3561 66.6941 25.5913C66.3132 25.555 65.9265 25.5222 65.532 25.4929ZM67.6843 152.687H67.3455C67.4392 156.374 68.4685 174.828 79.8015 179.543C87.6394 182.847 98.5916 179.1 112.526 168.465C103.464 174.927 95.5671 178.168 88.8767 178.168C86.6765 178.168 84.5681 177.801 82.6433 177.068C70.6257 172.645 68.1082 156.214 67.6843 152.687ZM155.81 33.4815L154.216 33.5655L154.217 33.2234L154.22 32.7737L154.226 32.3663L155.869 32.2045C155.847 32.6316 155.828 33.0576 155.81 33.4815ZM155.93 31.0562L154.257 31.2201C154.267 30.8917 154.28 30.5624 154.294 30.2331L154.328 29.4425C154.909 29.364 155.476 29.2895 156.03 29.2196L155.971 30.3224L155.93 31.0562ZM156.088 28.0208C155.54 28.0891 154.971 28.1631 154.385 28.2425L154.394 28.0512L154.412 27.6641L154.424 27.4176L154.474 26.4152C155.053 26.3289 155.612 26.2515 156.149 26.1841C156.135 26.7831 156.114 27.398 156.088 28.0208ZM156.165 24.8594C155.644 24.9198 155.102 24.9903 154.537 25.0702V25.0556L154.549 24.7838L154.558 24.5336L154.572 24.1462L154.585 23.7195L154.594 23.319C155.135 23.2631 155.646 23.2239 156.127 23.2028C156.152 23.7275 156.165 24.2824 156.165 24.8594ZM156.04 22.0189C155.848 22.027 155.652 22.0378 155.452 22.0513C155.177 22.0698 154.896 22.0931 154.606 22.1213L154.602 21.674L154.594 21.2959C154.587 21.0572 154.578 20.8229 154.566 20.5936C155.029 20.6205 155.457 20.6743 155.847 20.7571C155.928 21.1386 155.992 21.5616 156.04 22.0189ZM155.351 19.3475L155.091 19.3223L154.847 19.304C154.719 19.2956 154.589 19.2891 154.456 19.2844C154.418 18.9751 154.372 18.6778 154.317 18.3937C154.593 18.5535 154.839 18.7406 155.054 18.9566C155.163 19.0648 155.261 19.1957 155.351 19.3475ZM55.9343 132.269C55.4509 132.22 54.9587 132.193 54.4587 132.182C54.4343 132.604 54.4099 133.064 54.3865 133.552C54.6228 133.545 54.8601 133.539 55.0974 133.535C55.2664 133.532 55.4353 133.53 55.6042 133.53L55.8796 133.532V133.163L55.8875 133.016L55.9343 132.269ZM53.2302 132.907L53.2703 132.181C52.7644 132.19 52.2537 132.211 51.7371 132.237C51.7097 132.724 51.6853 133.189 51.6638 133.634L51.8464 133.622C52.1316 133.622 52.4226 133.617 52.7175 133.609L53.1951 133.594L53.2302 132.907ZM50.0125 132.338C49.5007 132.37 48.988 132.401 48.4753 132.427L48.4392 133.306L48.4246 133.775C48.6638 133.774 48.906 133.769 49.1501 133.762C49.5105 133.752 49.8757 133.737 50.2439 133.718L50.2878 132.912L50.322 132.319L50.0125 132.338ZM46.0378 132.492L45.8386 132.49C45.6628 132.488 45.488 132.484 45.3142 132.478C45.323 132.854 45.3376 133.219 45.3591 133.569C45.9617 133.671 46.5916 133.729 47.2419 133.756C47.2517 133.348 47.2644 132.921 47.283 132.477C47.0759 132.483 46.8689 132.487 46.6628 132.49C46.4539 132.493 46.2458 132.494 46.0378 132.492ZM42.8386 132.229C42.8914 132.452 42.95 132.664 43.0134 132.864C43.3669 133.032 43.7371 133.171 44.1218 133.286C44.1062 132.996 44.0935 132.7 44.0867 132.399C43.6648 132.358 43.2488 132.303 42.8386 132.229ZM70.908 29.9013C71.0476 30.1379 71.1941 30.3667 71.3455 30.5878C71.9568 30.6017 72.573 30.6198 73.1843 30.6429C73.0085 30.3083 72.8445 29.9582 72.6921 29.5923C72.0535 29.534 71.3699 29.4853 70.6511 29.4457C70.7341 29.6007 70.8201 29.7525 70.908 29.9013ZM72.9841 32.4707C73.0847 32.5618 73.1863 32.6508 73.2898 32.7379C73.3796 32.8132 73.4705 32.887 73.5632 32.9593L73.698 33.0628L73.821 33.1549L75.0027 33.1729C74.6882 32.8488 74.3923 32.5007 74.115 32.1276C73.6121 32.104 73.0916 32.0823 72.5583 32.0626C72.697 32.2029 72.8386 32.339 72.9841 32.4707ZM69.9939 28.0308L70.0183 28.0922C70.6511 28.1308 71.2644 28.1768 71.8523 28.2304C71.78 28.15 71.7048 28.0715 71.6277 27.9947C71.5486 27.9164 71.4666 27.8398 71.3826 27.7648L71.2634 27.6614L71.1326 27.5527C70.7937 27.4712 70.4314 27.3946 70.0457 27.3231C69.908 27.2975 69.7664 27.2725 69.6228 27.2482C69.7556 27.4945 69.8796 27.7547 69.9939 28.0308ZM68.8855 152.687H69.3064C70.0789 155.938 74.3074 170.117 86.3113 173.677C88.0525 174.227 89.9783 174.502 91.9939 174.502C98.1521 174.502 105.153 171.878 112.938 166.667C100.764 175.633 90.7566 178.775 83.1023 175.968C72.0349 171.899 69.3494 156.271 68.8855 152.687ZM157.035 33.4182L158.534 33.3426L158.539 33.1639L158.584 31.9515L157.087 32.0884L157.07 32.4878C157.057 32.7978 157.045 33.1082 157.035 33.4182ZM157.137 30.9425C157.65 30.8952 158.144 30.8507 158.622 30.8092C158.641 30.1702 158.657 29.534 158.667 28.9115L157.929 28.992L157.206 29.0756L157.162 30.414L157.137 30.9425ZM157.245 27.882L157.898 27.8088L158.677 27.7273L158.676 27.257L158.672 26.8246C158.667 26.5198 158.66 26.2223 158.65 25.9338C158.401 25.9509 158.145 25.9713 157.882 25.9951C157.687 26.0126 157.49 26.0318 157.289 26.0527C157.279 26.6441 157.263 27.2551 157.245 27.882ZM157.298 24.7407C157.744 24.6994 158.171 24.667 158.578 24.6437L158.552 24.3563L158.54 24.2297L158.521 24.0516C158.489 23.7739 158.453 23.5138 158.409 23.2741C158.059 23.2267 157.676 23.1987 157.262 23.1888C157.284 23.6832 157.296 24.2016 157.298 24.7407ZM157.182 22.0034L157.449 22.0108L157.707 22.0227L157.926 22.0367L158.042 22.0457C157.97 21.907 157.892 21.7931 157.805 21.7065C157.602 21.5036 157.362 21.3301 157.085 21.1844C157.102 21.3011 157.118 21.4199 157.133 21.541L157.153 21.7202L157.182 22.0034ZM74.5964 30.7062C74.406 30.401 74.2292 30.0798 74.0652 29.7421C74.8367 29.8423 75.5085 29.9614 76.0535 30.1006C76.2 30.2852 76.321 30.4807 76.4119 30.6891L76.4695 30.8287C75.8689 30.7805 75.24 30.7401 74.5964 30.7062ZM44.2566 134.792L44.2419 134.676L44.0691 134.633C44.1306 134.688 44.1931 134.741 44.2566 134.792ZM45.5447 135.282C45.5613 135.385 45.5798 135.484 45.5994 135.581C46.1072 135.792 46.657 135.944 47.2429 136.05C47.2341 135.733 47.2283 135.4 47.2283 135.051C46.6375 135.03 46.0554 134.985 45.4871 134.908C45.5046 135.036 45.5242 135.161 45.5447 135.282ZM48.4021 135.065C48.4001 135.473 48.4041 135.85 48.4119 136.2C48.9656 136.246 49.5417 136.263 50.1384 136.261L50.1648 135.461L50.1833 135.006L49.6296 135.032C49.2195 135.049 48.8093 135.061 48.4021 135.065ZM51.6072 134.921C51.5896 135.38 51.575 135.813 51.5632 136.223C52.0613 136.201 52.5691 136.171 53.0837 136.137L53.1003 135.717L53.1375 134.826L52.28 134.878L51.8464 134.905L51.6072 134.921ZM54.3328 134.769C54.3142 135.211 54.2966 135.666 54.281 136.129C54.7927 136.145 55.3152 136.137 55.8347 136.125L55.8679 134.743C55.3601 134.739 54.8484 134.75 54.3328 134.769ZM70.7556 152.687H70.4304C71.2527 155.795 75.4187 169.259 86.5867 172.577C94.2224 174.823 103.475 172.038 114.22 164.283C107.426 168.645 101.023 170.835 95.1111 170.835C93.4617 170.835 91.9031 170.652 90.3455 170.377C77.9841 167.74 71.9207 155.248 70.7556 152.687ZM161.102 33.2197L159.812 33.2802L159.822 33.0722L159.857 31.9783L159.862 31.8409L160.663 31.7753L161.141 31.7377C161.131 32.2289 161.117 32.725 161.102 33.2197ZM161.159 30.6041C160.755 30.6338 160.335 30.6664 159.898 30.7017C159.911 30.2999 159.923 29.904 159.932 29.5151C159.939 29.2688 159.944 29.0252 159.949 28.7848C160.368 28.7466 160.77 28.7134 161.156 28.6856C161.166 29.2963 161.166 29.9411 161.159 30.6041ZM161.122 27.5259C160.752 27.5484 160.365 27.5763 159.964 27.6094C159.967 27.0055 159.963 26.426 159.946 25.8759C160.322 25.8695 160.673 25.8741 160.998 25.8906C161.055 26.37 161.095 26.9218 161.122 27.5259ZM160.746 24.6156C160.576 24.6083 160.4 24.6037 160.219 24.6016L159.882 24.6006C159.871 24.4518 159.858 24.3059 159.844 24.1631L159.815 23.8953L159.785 23.6364C160.001 23.7344 160.19 23.8493 160.347 23.982C160.388 24.0166 160.427 24.0525 160.465 24.0895C160.573 24.1979 160.667 24.3767 160.746 24.6156ZM46.3484 137.38C46.2595 137.292 46.1775 137.184 46.1023 137.058L46.2136 137.087L46.4285 137.14L46.6472 137.189L46.7263 137.205L46.8406 137.228L47.0964 137.274L47.3064 137.308C47.322 137.516 47.3406 137.715 47.3611 137.906L47.3855 138.114C47.2625 138.053 47.1433 137.987 47.0291 137.916L46.8904 137.826C46.7898 137.758 46.6931 137.686 46.6003 137.609C46.5134 137.537 46.4294 137.461 46.3484 137.38ZM48.5085 137.928C48.4929 137.773 48.4792 137.609 48.4666 137.436C49.0007 137.475 49.5505 137.492 50.1121 137.493L50.1062 138.19L50.1091 138.793C49.5691 138.742 49.0574 138.663 48.5837 138.544C48.5564 138.357 48.531 138.152 48.5085 137.928ZM51.53 138.865C51.5271 138.442 51.5281 137.979 51.5359 137.471C51.7957 137.463 52.0574 137.454 52.3201 137.443L53.0417 137.413L53.0203 138.218L53.0066 138.852C52.7712 138.859 52.5378 138.863 52.3074 138.866L51.8484 138.868L51.53 138.865ZM54.2078 138.806C54.2175 138.326 54.2292 137.842 54.2429 137.36L55.0339 137.327C55.2917 137.317 55.5505 137.308 55.8083 137.3L55.7781 138.733L55.24 138.755L54.2078 138.806ZM72.1082 152.687H72.3513C73.8699 154.834 82.2537 165.665 95.3845 167.077C96.3005 167.169 97.3093 167.261 98.2253 167.261C103.968 167.261 109.845 165.396 115.798 161.686C106.539 168.247 98.072 170.746 90.5281 169.185C79.4255 166.818 73.6306 155.944 72.1082 152.687ZM162.391 33.1623L163.939 33.0987C163.943 32.5695 163.944 32.0504 163.94 31.5503C163.463 31.576 162.958 31.6074 162.428 31.6436L162.41 32.4796L162.391 33.1623ZM162.444 30.5157C162.968 30.4825 163.461 30.4551 163.923 30.4334C163.912 29.9518 163.895 29.4979 163.872 29.0814C163.862 28.9101 163.851 28.7451 163.839 28.5872C163.418 28.5808 162.948 28.5893 162.434 28.611C162.439 28.8432 162.443 29.0821 162.445 29.3276C162.448 29.7078 162.448 30.1039 162.444 30.5157ZM162.393 27.4682C162.864 27.455 163.302 27.4532 163.708 27.4632C163.63 27.0102 163.527 26.6965 163.395 26.5644C163.162 26.3307 162.784 26.1612 162.281 26.0485C162.33 26.4792 162.367 26.9528 162.393 27.4682ZM54.1882 140.093C54.5896 140.077 54.9939 140.058 55.3992 140.039L55.4226 140.038L55.7537 140.025L55.7332 141.358C55.2019 141.367 54.6824 141.372 54.1804 141.366L54.1833 140.677L54.1882 140.093ZM52.3816 140.141L52.5173 140.14L52.99 140.132C52.9871 140.538 52.988 140.938 52.991 141.329C52.5046 141.302 52.0437 141.26 51.6169 141.195C51.5925 140.891 51.571 140.54 51.5564 140.136C51.8279 140.142 52.1033 140.143 52.3816 140.141ZM49.8679 140.036L50.1433 140.063C50.156 140.337 50.1716 140.595 50.1902 140.839C49.991 140.762 49.8074 140.673 49.6414 140.572C49.4705 140.469 49.3191 140.352 49.1882 140.221C49.1072 140.151 49.0291 140.048 48.9548 139.905C49.1677 139.944 49.3855 139.977 49.6072 140.005L49.8679 140.036ZM73.9734 152.687H73.9646C76.3367 155.785 84.0369 164.585 95.5671 165.794C102.704 166.514 110.028 164.288 117.471 159.116C111.93 162.317 106.459 163.502 101.344 163.502C87.2791 163.502 75.9675 154.403 73.9734 152.687ZM166.485 33.0139L165.819 33.033L165.135 33.055C165.139 32.5008 165.139 31.9815 165.135 31.4956C165.61 31.4783 166.048 31.4685 166.445 31.467C166.464 31.9368 166.477 32.4569 166.485 33.0139ZM165.649 30.3774L165.118 30.3886C165.11 30.0595 165.099 29.7489 165.086 29.4561C165.078 29.2879 165.068 29.1255 165.058 28.969L165.038 28.6627C165.586 28.7342 165.965 28.8569 166.146 29.0391C166.252 29.2289 166.329 29.7003 166.383 30.3739H165.978L165.649 30.3774ZM54.4695 142.515L54.1882 142.515C54.1941 142.96 54.2048 143.378 54.2195 143.762C54.3484 143.775 54.4812 143.786 54.6179 143.796C54.7371 143.804 54.8591 143.812 54.9841 143.818L55.282 143.832L55.7087 143.844C55.7107 143.425 55.7146 142.974 55.7195 142.488C55.4685 142.497 55.2214 142.503 54.9773 142.508L54.4695 142.515ZM53.0105 142.489C52.5798 142.468 52.1667 142.434 51.7722 142.383C51.8552 142.783 51.948 142.98 52.031 143.063C52.2527 143.285 52.6033 143.448 53.0535 143.566L53.033 143.137L53.0183 142.741L53.0105 142.489ZM76.9167 153.375C81.1033 155.3 92.6736 160.02 104.368 160.02C109.199 160.02 114.07 159.185 118.43 157.041C110.097 162.504 100.861 163.724 90.8943 160.569C84.697 158.658 79.6853 155.418 76.9167 153.375ZM167.886 32.985C168.269 32.9798 168.62 32.9775 168.942 32.9781C168.907 32.3726 168.862 31.927 168.804 31.6973C168.616 31.6082 168.291 31.5469 167.844 31.51C167.864 31.9501 167.879 32.4404 167.886 32.985ZM54.2927 144.966C54.3435 145.522 54.4128 145.915 54.5056 146.087C54.6833 146.265 55.1189 146.376 55.7205 146.441C55.7126 146.031 55.7068 145.563 55.7068 145.03C55.2068 145.021 54.7351 145.002 54.2927 144.966ZM107.392 156.261C97.196 156.261 85.4021 154.239 79.9197 153.195C88.1111 156.508 107.001 162.621 119.834 154.704C116.605 155.838 112.189 156.261 107.392 156.261ZM84.4041 152.687C94.8328 154.455 113.639 156.819 120.999 152.687H84.4041ZM137.822 150.945H60.0037V36.6469H174.302V114.465L137.822 150.945Z" fill="white"/>
<path d="M124.898 79.6349C127.464 80.9182 128.748 83.3013 128.748 86.1427C128.748 91.6423 125.356 96.1336 118.848 96.1336H104V64.3279H117.565C123.065 64.3279 127.464 68.6359 127.464 74.0437C127.373 76.0602 126.456 78.3517 124.898 79.6349ZM111.791 71.6606V76.7935H116.924C120.132 76.7935 120.132 71.6606 116.924 71.6606H111.791ZM111.791 83.4846V88.8925H118.298C121.598 88.8925 121.507 83.4846 118.298 83.4846H111.791Z" fill="white"/>
<path d="M74.5781 115.931C74.5781 112.082 76.9612 109.699 80.7192 109.699C84.2023 109.699 86.4938 111.715 86.4938 114.831V114.923H82.4608V114.831C82.3691 113.732 81.7275 113.09 80.8109 113.09C79.711 113.09 79.0694 114.098 79.0694 116.023C79.0694 117.948 79.711 118.956 80.8109 118.956C81.8191 118.956 82.3691 118.315 82.4608 117.215V117.123H86.4938V117.215C86.4938 120.148 84.3856 122.348 80.7192 122.348C76.8696 122.073 74.5781 119.781 74.5781 115.931Z" fill="white"/>
<path d="M87.4102 118.406C87.4102 116.115 89.1517 114.831 92.3598 114.648L94.8346 114.465V114.007C94.8346 113.273 94.3763 112.907 93.4597 112.907C92.5431 112.907 92.0848 113.273 91.9932 113.823V113.915H88.0518V113.732C88.2351 111.348 90.2516 109.699 93.7347 109.699C97.0344 109.699 99.2342 111.348 99.2342 113.732V121.798H94.8346V120.148H94.7429C94.1013 121.248 93.0014 121.889 91.4432 121.889C89.0601 121.981 87.4102 120.423 87.4102 118.406ZM93.0931 119.048C94.193 119.048 94.8346 118.498 94.8346 117.673V116.94L93.0931 117.031C92.1765 117.123 91.7182 117.49 91.7182 118.04C91.7182 118.681 92.2681 119.048 93.0931 119.048Z" fill="white"/>
<path d="M100.977 109.974H105.377V112.082H105.469C106.018 110.615 107.302 109.699 108.952 109.699C111.976 109.699 113.626 111.898 113.626 115.931C113.626 119.873 111.976 122.164 109.043 122.164C107.302 122.164 106.018 121.248 105.469 119.873H105.377V125.739H100.977V109.974ZM109.135 115.931C109.135 114.282 108.402 113.273 107.21 113.273C106.018 113.273 105.285 114.282 105.285 115.931C105.285 117.581 106.018 118.589 107.21 118.589C108.402 118.589 109.135 117.581 109.135 115.931Z" fill="white"/>
<path d="M115 109.974H119.399V121.889H115V109.974ZM115 106.765C115 105.666 115.916 104.657 117.199 104.657C118.483 104.657 119.399 105.574 119.399 106.765C119.399 107.957 118.483 108.874 117.199 108.874C115.916 108.874 115 107.957 115 106.765Z" fill="white"/>
<path d="M122.148 118.223V113.09H120.589V109.974H122.148V107.407H126.547V109.974H128.655V113.182H126.547V117.581C126.547 118.498 127.006 118.956 127.922 118.956C128.289 118.956 128.472 118.956 128.655 118.864V121.981C128.197 122.073 127.556 122.164 126.639 122.164C123.523 122.073 122.148 121.064 122.148 118.223Z" fill="white"/>
<path d="M129.664 118.406C129.664 116.115 131.405 114.831 134.613 114.648L137.088 114.465V114.007C137.088 113.273 136.63 112.907 135.713 112.907C134.797 112.907 134.338 113.273 134.247 113.823V113.915H130.305V113.732C130.489 111.348 132.505 109.699 135.988 109.699C139.288 109.699 141.488 111.348 141.488 113.732V121.798H137.088V120.148H136.996C136.355 121.248 135.255 121.889 133.697 121.889C131.314 121.981 129.664 120.423 129.664 118.406ZM135.347 119.048C136.446 119.048 137.088 118.498 137.088 117.673V116.94L135.347 117.031C134.43 117.123 133.972 117.49 133.972 118.04C133.972 118.681 134.522 119.048 135.347 119.048Z" fill="white"/>
<path d="M143.23 106.307H147.63V121.889H143.23V106.307Z" fill="white"/>
<path d="M100.335 65.611L87.3195 88.8924H100.518C100.518 91.6422 100.518 93.3837 100.518 96.1335H75.1289V94.9419L88.1444 71.6605H76.3204C76.3204 68.9107 76.3204 67.1692 76.3204 64.4194H100.335V65.611Z" fill="white"/>
<path d="M148.181 86.7843C148.181 84.5845 145.523 84.0345 142.406 83.8512C135.532 83.3929 130.949 81.0098 130.857 74.1354C130.582 60.3865 155.239 60.3865 155.055 74.1354C152.214 74.1354 150.106 74.1354 147.356 74.1354C147.356 69.9191 138.832 70.2857 138.557 74.0437C138.373 76.4268 140.757 76.9768 143.598 77.2518C149.922 77.8934 156.064 78.9016 156.064 86.7843C156.064 100.166 130.216 100.349 130.399 86.4177C133.149 86.4177 135.44 86.4177 138.282 86.4177C138.282 90.4507 148.181 90.5423 148.181 86.7843Z" fill="white"/>
</svg>
