<svg version="1.1" viewBox="0.0 0.0 529.1338582677165 188.9763779527559" fill="none" stroke="none" stroke-linecap="square" stroke-miterlimit="10" xmlns:xlink="http://www.w3.org/1999/xlink" xmlns="http://www.w3.org/2000/svg"><clipPath id="g2f3eca40246_0_141.0"><path d="m0 0l529.13385 0l0 188.97638l-529.13385 0l0 -188.97638z" clip-rule="nonzero"/></clipPath><g clip-path="url(#g2f3eca40246_0_141.0)"><path fill="#000000" fill-opacity="0.0" d="m0 0l529.13385 0l0 188.97638l-529.13385 0z" fill-rule="evenodd"/><path fill="#ffffff" d="m19.128609 38.23556l113.385826 0l0 113.76378l-113.385826 0z" fill-rule="evenodd"/><path fill="#000000" d="m38.026245 57.193672l75.59055 0l0 75.84252l-75.59055 0z" fill-rule="evenodd"/><path fill="#ffffff" d="m56.923885 76.15178l37.795277 0l0 37.921265l-37.795277 0z" fill-rule="evenodd"/><path fill="#000000" d="m38.026245 132.72375l18.89764 0l0 19.653534l-18.89764 0z" fill-rule="evenodd"/><path fill="#000000" fill-opacity="0.0" d="m108.115486 38.236877l449.88977 0l0 128.50394l-449.88977 0z" fill-rule="evenodd"/><path fill="#ffffff" d="m156.94318 133.63687l0 -71.578125l23.1875 0q13.1875 0 17.1875 1.0625q6.15625 1.625 10.296875 7.015625q4.15625 5.390625 4.15625 13.9375q0 6.59375 -2.390625 11.09375q-2.390625 4.484375 -6.078125 7.046875q-3.6875 2.5625 -7.5 3.390625q-5.171875 1.03125 -14.984375 1.03125l-9.421875 0l0 27.0l-14.453125 0zm14.453125 -59.46875l0 20.3125l7.90625 0q8.546875 0 11.421875 -1.125q2.890625 -1.125 4.515625 -3.515625q1.640625 -2.390625 1.640625 -5.5625q0 -3.90625 -2.296875 -6.4375q-2.296875 -2.546875 -5.8125 -3.1875q-2.578125 -0.484375 -10.390625 -0.484375l-6.984375 0zm51.808594 59.46875l0 -71.578125l14.453125 0l0 71.578125l-14.453125 0zm28.220703 0l0 -71.578125l23.1875 0q13.1875 0 17.1875 1.0625q6.15625 1.625 10.296875 7.015625q4.15625 5.390625 4.15625 13.9375q0 6.59375 -2.390625 11.09375q-2.390625 4.484375 -6.078125 7.046875q-3.6875 2.5625 -7.5 3.390625q-5.171875 1.03125 -14.984375 1.03125l-9.421875 0l0 27.0l-14.453125 0zm14.453125 -59.46875l0 20.3125l7.90625 0q8.546875 0 11.421875 -1.125q2.890625 -1.125 4.515625 -3.515625q1.640625 -2.390625 1.640625 -5.5625q0 -3.90625 -2.296875 -6.4375q-2.296875 -2.546875 -5.8125 -3.1875q-2.578125 -0.484375 -10.390625 -0.484375l-6.984375 0zm52.246094 59.46875l0 -71.578125l53.078125 0l0 12.109375l-38.625 0l0 15.859375l35.9375 0l0 12.0625l-35.9375 0l0 19.484375l39.984375 0l0 12.0625l-54.4375 0zm66.74609 0l0 -71.578125l30.421875 0q11.46875 0 16.671875 1.9375q5.203125 1.921875 8.328125 6.859375q3.125 4.921875 3.125 11.265625q0 8.0625 -4.75 13.3125q-4.734375 5.25 -14.15625 6.609375q4.6875 2.734375 7.734375 6.015625q3.0625 3.265625 8.234375 11.609375l8.75 13.96875l-17.296875 0l-10.4375 -15.578125q-5.578125 -8.34375 -7.625 -10.515625q-2.046875 -2.171875 -4.34375 -2.984375q-2.296875 -0.8125 -7.28125 -0.8125l-2.921875 0l0 29.890625l-14.453125 0zm14.453125 -41.3125l10.6875 0q10.40625 0 12.984375 -0.875q2.59375 -0.875 4.0625 -3.015625q1.46875 -2.15625 1.46875 -5.390625q0 -3.609375 -1.9375 -5.828125q-1.921875 -2.21875 -5.4375 -2.8125q-1.765625 -0.234375 -10.546875 -0.234375l-11.28125 0l0 18.15625zm50.435547 41.3125l24.46875 -37.359375l-22.171875 -34.21875l16.890625 0l14.359375 23.0l14.0625 -23.0l16.75 0l-22.265625 34.765625l24.453125 36.8125l-17.421875 0l-15.875 -24.75l-15.921875 24.75l-17.328125 0z" fill-rule="nonzero"/></g></svg>